G04 ================== begin FILE IDENTIFICATION RECORD ==================*
G04 Layout Name:  snoic_test.brd*
G04 Film Name:    DRILL*
G04 File Format:  Gerber RS274X*
G04 File Origin:  Cadence Allegro 16.6-P004*
G04 Origin Date:  Tue Nov 04 00:15:37 2014*
G04 *
G04 Layer:  MANUFACTURING/NCDRILL_LEGEND*
G04 Layer:  MANUFACTURING/NCDRILL_FIGURE*
G04 Layer:  MANUFACTURING/NCLEGEND-1-2*
G04 Layer:  BOARD GEOMETRY/OUTLINE*
G04 *
G04 Offset:    (0.000 0.000)*
G04 Mirror:    No*
G04 Mode:      Positive*
G04 Rotation:  0*
G04 FullContactRelief:  No*
G04 UndefLineWidth:     6.000*
G04 ================== end FILE IDENTIFICATION RECORD ====================*
%FSLAX25Y25*MOIN*%
%IR0*IPPOS*OFA0.00000B0.00000*MIA0B0*SFA1.00000B1.00000*%
%AMMACRO11*
1,1,.006,.0065,0.0*
20,1,.006,.0065,0.0,-.0065,0.0,0.0*
1,1,.006,-.0065,0.0*
1,1,.006,0.0,.0065*
20,1,.006,0.0,.0065,0.0,-.0065,0.0*
1,1,.006,0.0,-.0065*
%
%ADD11MACRO11*%
%AMMACRO12*
1,1,.006,.019685,.019685*
20,1,.006,.019685,.019685,.019685,-.019685,0.0*
1,1,.006,.019685,-.019685*
20,1,.006,.019685,-.019685,-.019685,-.019685,0.0*
1,1,.006,-.019685,-.019685*
20,1,.006,-.019685,-.019685,-.019685,.019685,0.0*
1,1,.006,-.019685,.019685*
20,1,.006,-.019685,.019685,.019685,.019685,0.0*
1,1,.006,.019685,.019685*
%
%ADD12MACRO12*%
%AMMACRO10*
1,1,.006,.019705,0.0*
20,1,.006,.019705,0.0,.009852,.017065,0.0*
1,1,.006,.009852,.017065*
20,1,.006,.009852,.017065,-.009852,.017065,0.0*
1,1,.006,-.009852,.017065*
20,1,.006,-.009852,.017065,-.019705,0.0,0.0*
1,1,.006,-.019705,0.0*
20,1,.006,-.019705,0.0,-.009852,-.017065,0.0*
1,1,.006,-.009852,-.017065*
20,1,.006,-.009852,-.017065,.009852,-.017065,0.0*
1,1,.006,.009852,-.017065*
20,1,.006,.009852,-.017065,.019705,0.0,0.0*
1,1,.006,.019705,0.0*
%
%ADD10MACRO10*%
%ADD13C,.006*%
G75*
%LPD*%
G75*
G54D10*
X25000Y46000D03*
Y56000D03*
Y66000D03*
Y76000D03*
Y86000D03*
Y96000D03*
Y106000D03*
Y116000D03*
Y126000D03*
Y136000D03*
Y146000D03*
Y156000D03*
Y166000D03*
Y176000D03*
Y186000D03*
Y196000D03*
Y206000D03*
Y216000D03*
Y226000D03*
Y236000D03*
Y246000D03*
Y256000D03*
Y266000D03*
Y276000D03*
Y286000D03*
Y296000D03*
Y306000D03*
Y316000D03*
X145000Y46000D03*
Y56000D03*
Y66000D03*
Y76000D03*
Y86000D03*
Y96000D03*
Y106000D03*
Y116000D03*
Y126000D03*
Y136000D03*
Y146000D03*
Y156000D03*
Y166000D03*
Y176000D03*
Y186000D03*
Y196000D03*
Y206000D03*
Y216000D03*
Y226000D03*
Y236000D03*
Y246000D03*
Y256000D03*
Y266000D03*
Y276000D03*
Y286000D03*
Y296000D03*
Y306000D03*
Y316000D03*
X262350Y180250D03*
G54D11*
X31000Y31600D03*
X42700Y32000D03*
X47310Y51890D03*
X52300Y122500D03*
X45000Y157400D03*
X49000Y303200D03*
X64900Y109874D03*
X58200Y130500D03*
X64200Y137900D03*
X60000Y170600D03*
X57000Y177600D03*
X56200Y213300D03*
X62900Y263700D03*
X66300Y25600D03*
X68400Y38900D03*
X72600Y108600D03*
X75400Y142400D03*
X74285Y218900D03*
X68900Y262900D03*
X73300Y309800D03*
X81400Y68300D03*
X81500Y88200D03*
X81940Y116760D03*
X82000Y139600D03*
X85451Y149749D03*
X84100Y170300D03*
X78600Y195800D03*
X76800Y203100D03*
X78700Y242900D03*
X89700Y29900D03*
X88300Y105300D03*
X93600Y145500D03*
X95800Y157500D03*
Y181400D03*
X91800Y199900D03*
X96400Y242900D03*
X93700Y287000D03*
X90500Y309800D03*
X106500Y18200D03*
X106695Y40767D03*
X98600Y109300D03*
X101900Y145300D03*
X98400Y179300D03*
X104400Y240200D03*
X104600Y244800D03*
X106200Y274600D03*
X102800Y286800D03*
X98000Y286900D03*
X109400Y22300D03*
Y29000D03*
X109800Y37500D03*
X113500Y126500D03*
X112300Y171100D03*
X115000Y191100D03*
X115100Y195100D03*
X107500Y286700D03*
X121900Y175700D03*
X127900Y195900D03*
X123800Y262900D03*
X123500Y267900D03*
X130100Y215100D03*
X155700Y13700D03*
X155900Y23300D03*
X164700Y100500D03*
Y117000D03*
X262350Y236450D03*
G54D12*
X45915Y88200D03*
X65600D03*
X56300Y251400D03*
Y271085D03*
X104415Y88200D03*
X124100D03*
X262350Y208350D03*
G54D13*
G01X0Y0D02*
X170000D01*
Y333071D01*
X0D01*
Y0D01*
G01X217400Y166200D02*
Y331700D01*
X701000D01*
Y166200D01*
X217400D01*
G01Y194300D02*
X701000D01*
G01X217400Y222400D02*
X701000D01*
G01X217400Y250500D02*
X701000D01*
G01X217400Y278600D02*
X701000D01*
G01X217400Y306700D02*
X701000D01*
G01X228405Y259850D02*
Y272350D01*
X234295D01*
G01X232125Y266308D02*
X228405D01*
G01X241890Y272350D02*
X245610D01*
G01X243750D02*
Y259850D01*
G01X241890D02*
X245610D01*
G01X257080Y266100D02*
X260180D01*
Y262350D01*
X259250Y261100D01*
X258165Y260267D01*
X256615Y259850D01*
X255065Y260267D01*
X253980Y261100D01*
X253050Y262350D01*
X252430Y263808D01*
X252120Y265475D01*
Y266933D01*
X252430Y268183D01*
X253050Y269642D01*
X253980Y270892D01*
X254910Y271725D01*
X256150Y272350D01*
X257235D01*
X258475Y271933D01*
X259405Y271100D01*
G01X265140Y272350D02*
Y263392D01*
X265760Y261516D01*
X267000Y260267D01*
X268550Y259850D01*
X270100Y260267D01*
X271340Y261516D01*
X271960Y263392D01*
Y272350D01*
G01X277850Y259850D02*
Y272350D01*
X281725D01*
X282965Y271725D01*
X283740Y270892D01*
X284050Y269225D01*
X283740Y267558D01*
X282810Y266517D01*
X281725Y265892D01*
X277850D01*
G01X281725D02*
X284050Y259850D01*
G01X296450D02*
X290250D01*
Y272350D01*
X296450D01*
G01X293970Y266308D02*
X290250D01*
G01X300790Y312950D02*
Y325450D01*
X303890D01*
X305130Y324825D01*
X306060Y323992D01*
X306835Y322742D01*
X307455Y321283D01*
X307610Y319200D01*
X307455Y317116D01*
X306835Y315658D01*
X306060Y314408D01*
X305130Y313575D01*
X303890Y312950D01*
X300790D01*
G01X313500D02*
Y325450D01*
X317375D01*
X318615Y324825D01*
X319390Y323992D01*
X319700Y322325D01*
X319390Y320658D01*
X318460Y319617D01*
X317375Y318992D01*
X313500D01*
G01X317375D02*
X319700Y312950D01*
G01X327140Y325450D02*
X330860D01*
G01X329000D02*
Y312950D01*
G01X327140D02*
X330860D01*
G01X338300Y325450D02*
Y312950D01*
X344500D01*
G01X350700Y325450D02*
Y312950D01*
X356900D01*
G01X382010Y324408D02*
X381080Y325033D01*
X379995Y325450D01*
X378755D01*
X377360Y324825D01*
X376275Y323783D01*
X375500Y322533D01*
X374880Y320450D01*
X374725Y318575D01*
X375035Y316700D01*
X375500Y315450D01*
X376430Y314200D01*
X377515Y313367D01*
X378600Y312950D01*
X379685D01*
X380770Y313367D01*
X381700Y313991D01*
X382475Y314825D01*
G01X387745Y312950D02*
Y325450D01*
G01X394255D02*
Y312950D01*
G01Y319200D02*
X387745D01*
G01X399525Y312950D02*
X403400Y325450D01*
X407275Y312950D01*
G01X405880Y317325D02*
X400920D01*
G01X412700Y312950D02*
Y325450D01*
X416575D01*
X417815Y324825D01*
X418590Y323992D01*
X418900Y322325D01*
X418590Y320658D01*
X417660Y319617D01*
X416575Y318992D01*
X412700D01*
G01X416575D02*
X418900Y312950D01*
G01X428200Y325450D02*
Y312950D01*
G01X424635Y325450D02*
X431765D01*
G01X440600Y312533D02*
X440290Y312742D01*
Y313158D01*
X440600Y313367D01*
X440910Y313158D01*
Y312742D01*
X440600Y312533D01*
G01Y318158D02*
X440290Y318367D01*
Y318783D01*
X440600Y318992D01*
X440910Y318783D01*
Y318367D01*
X440600Y318158D01*
G01X465400Y325450D02*
Y312950D01*
G01X461835Y325450D02*
X468965D01*
G01X477800Y312950D02*
X476560Y313158D01*
X475475Y313991D01*
X474545Y315242D01*
X473925Y316700D01*
X473615Y318367D01*
Y320033D01*
X473925Y321700D01*
X474545Y323158D01*
X475475Y324408D01*
X476560Y325242D01*
X477800Y325450D01*
X479040Y325242D01*
X480125Y324408D01*
X481055Y323158D01*
X481675Y321700D01*
X481985Y320033D01*
Y318367D01*
X481675Y316700D01*
X481055Y315242D01*
X480125Y313991D01*
X479040Y313158D01*
X477800Y312950D01*
G01X487100D02*
Y325450D01*
X490820D01*
X492060Y324825D01*
X492990Y323367D01*
X493300Y321700D01*
X492990Y320033D01*
X492215Y318783D01*
X490820Y318158D01*
X487100D01*
G01X515000Y325450D02*
Y312950D01*
G01X512830Y321283D02*
X517170D01*
G01X527400Y312950D02*
X526470Y313158D01*
X525540Y313991D01*
X524920Y315450D01*
X524610Y317116D01*
X524920Y318783D01*
X525540Y320242D01*
X526470Y321075D01*
X527400Y321283D01*
X528330Y321075D01*
X529260Y320242D01*
X529880Y318783D01*
X530035Y317116D01*
X529880Y315450D01*
X529260Y313991D01*
X528330Y313158D01*
X527400Y312950D01*
G01X553440Y319617D02*
X554060Y320242D01*
X554525Y321283D01*
X554835Y322742D01*
X554525Y323992D01*
X553905Y324825D01*
X552820Y325450D01*
X548635D01*
Y312950D01*
X553750D01*
X554835Y313783D01*
X555455Y315033D01*
X555765Y316492D01*
X555455Y317950D01*
X554525Y319200D01*
X553440Y319617D01*
X548635D01*
G01X564600Y312950D02*
X563360Y313158D01*
X562275Y313991D01*
X561345Y315242D01*
X560725Y316700D01*
X560415Y318367D01*
Y320033D01*
X560725Y321700D01*
X561345Y323158D01*
X562275Y324408D01*
X563360Y325242D01*
X564600Y325450D01*
X565840Y325242D01*
X566925Y324408D01*
X567855Y323158D01*
X568475Y321700D01*
X568785Y320033D01*
Y318367D01*
X568475Y316700D01*
X567855Y315242D01*
X566925Y313991D01*
X565840Y313158D01*
X564600Y312950D01*
G01X577000Y325450D02*
Y312950D01*
G01X573435Y325450D02*
X580565D01*
G01X589400D02*
Y312950D01*
G01X585835Y325450D02*
X592965D01*
G01X601800Y312950D02*
X600560Y313158D01*
X599475Y313991D01*
X598545Y315242D01*
X597925Y316700D01*
X597615Y318367D01*
Y320033D01*
X597925Y321700D01*
X598545Y323158D01*
X599475Y324408D01*
X600560Y325242D01*
X601800Y325450D01*
X603040Y325242D01*
X604125Y324408D01*
X605055Y323158D01*
X605675Y321700D01*
X605985Y320033D01*
Y318367D01*
X605675Y316700D01*
X605055Y315242D01*
X604125Y313991D01*
X603040Y313158D01*
X601800Y312950D01*
G01X610170D02*
Y325450D01*
X614200Y315033D01*
X618230Y325450D01*
Y312950D01*
G01X307300Y278600D02*
Y166200D01*
G01X331325Y287950D02*
X335200Y300450D01*
X339075Y287950D01*
G01X337680Y292325D02*
X332720D01*
G01X344500Y300450D02*
Y287950D01*
X350700D01*
G01X356900Y300450D02*
Y287950D01*
X363100D01*
G01X381390Y300450D02*
Y291492D01*
X382010Y289616D01*
X383250Y288367D01*
X384800Y287950D01*
X386350Y288367D01*
X387590Y289616D01*
X388210Y291492D01*
Y300450D01*
G01X393635Y287950D02*
Y300450D01*
X400765Y287950D01*
Y300450D01*
G01X407740D02*
X411460D01*
G01X409600D02*
Y287950D01*
G01X407740D02*
X411460D01*
G01X422000Y300450D02*
Y287950D01*
G01X418435Y300450D02*
X425565D01*
G01X431145Y289616D02*
X432385Y288575D01*
X433780Y287950D01*
X435020D01*
X436260Y288575D01*
X437190Y289616D01*
X437655Y291075D01*
X437345Y292533D01*
X436570Y293783D01*
X435175Y294617D01*
X433315Y295033D01*
X432230Y295866D01*
X431765Y297325D01*
X432075Y298783D01*
X432850Y299825D01*
X433935Y300450D01*
X435020D01*
X436105Y300033D01*
X437035Y298992D01*
G01X455325Y287950D02*
X459200Y300450D01*
X463075Y287950D01*
G01X461680Y292325D02*
X456720D01*
G01X468500Y287950D02*
Y300450D01*
X472375D01*
X473615Y299825D01*
X474390Y298992D01*
X474700Y297325D01*
X474390Y295658D01*
X473460Y294617D01*
X472375Y293992D01*
X468500D01*
G01X472375D02*
X474700Y287950D01*
G01X487100D02*
X480900D01*
Y300450D01*
X487100D01*
G01X484620Y294408D02*
X480900D01*
G01X506940Y300450D02*
X510660D01*
G01X508800D02*
Y287950D01*
G01X506940D02*
X510660D01*
G01X517635D02*
Y300450D01*
X524765Y287950D01*
Y300450D01*
G01X541970Y287950D02*
Y300450D01*
X546000Y290033D01*
X550030Y300450D01*
Y287950D01*
G01X556540Y300450D02*
X560260D01*
G01X558400D02*
Y287950D01*
G01X556540D02*
X560260D01*
G01X567700Y300450D02*
Y287950D01*
X573900D01*
G01X579945Y289616D02*
X581185Y288575D01*
X582580Y287950D01*
X583820D01*
X585060Y288575D01*
X585990Y289616D01*
X586455Y291075D01*
X586145Y292533D01*
X585370Y293783D01*
X583975Y294617D01*
X582115Y295033D01*
X581030Y295866D01*
X580565Y297325D01*
X580875Y298783D01*
X581650Y299825D01*
X582735Y300450D01*
X583820D01*
X584905Y300033D01*
X585835Y298992D01*
G01X367440Y176500D02*
X368370Y175041D01*
X369610Y174208D01*
X371005Y174000D01*
X372245Y174208D01*
X373485Y175250D01*
X374260Y176500D01*
X374415Y177750D01*
X374105Y179208D01*
X373020Y180250D01*
X371935Y180667D01*
X370540D01*
G01X371935D02*
X372865Y181292D01*
X373640Y182333D01*
X373950Y183583D01*
X373640Y184833D01*
X372865Y185875D01*
X371470Y186500D01*
X370075Y186292D01*
X368680Y185458D01*
G01X380615Y175458D02*
X381700Y174417D01*
X382940Y174000D01*
X384180Y174417D01*
X385265Y175666D01*
X386040Y177542D01*
X386350Y179417D01*
Y181708D01*
X386040Y183583D01*
X385265Y185250D01*
X384335Y186083D01*
X383250Y186500D01*
X382010Y186083D01*
X381080Y185250D01*
X380460Y184000D01*
X380150Y182333D01*
X380460Y180875D01*
X381235Y179417D01*
X382165Y178583D01*
X383250Y178375D01*
X384490Y178791D01*
X385420Y179833D01*
X386350Y181708D01*
G01X395650Y173583D02*
X395340Y173792D01*
Y174208D01*
X395650Y174417D01*
X395960Y174208D01*
Y173792D01*
X395650Y173583D01*
G01X409910Y174000D02*
Y186500D01*
X404175Y177542D01*
X411925D01*
G01X420450Y186500D02*
X419210Y186083D01*
X418280Y185042D01*
X417660Y183792D01*
X417195Y182125D01*
X417040Y180250D01*
X417195Y178375D01*
X417660Y176708D01*
X418280Y175458D01*
X419210Y174417D01*
X420450Y174000D01*
X421690Y174417D01*
X422620Y175458D01*
X423240Y176708D01*
X423705Y178375D01*
X423860Y180250D01*
X423705Y182125D01*
X423240Y183792D01*
X422620Y185042D01*
X421690Y186083D01*
X420450Y186500D01*
G01X430215Y175458D02*
X431300Y174417D01*
X432540Y174000D01*
X433780Y174417D01*
X434865Y175666D01*
X435640Y177542D01*
X435950Y179417D01*
Y181708D01*
X435640Y183583D01*
X434865Y185250D01*
X433935Y186083D01*
X432850Y186500D01*
X431610Y186083D01*
X430680Y185250D01*
X430060Y184000D01*
X429750Y182333D01*
X430060Y180875D01*
X430835Y179417D01*
X431765Y178583D01*
X432850Y178375D01*
X434090Y178791D01*
X435020Y179833D01*
X435950Y181708D01*
G01X373640Y204600D02*
X374570Y203141D01*
X375810Y202308D01*
X377205Y202100D01*
X378445Y202308D01*
X379685Y203350D01*
X380460Y204600D01*
X380615Y205850D01*
X380305Y207308D01*
X379220Y208350D01*
X378135Y208767D01*
X376740D01*
G01X378135D02*
X379065Y209392D01*
X379840Y210433D01*
X380150Y211683D01*
X379840Y212933D01*
X379065Y213975D01*
X377670Y214600D01*
X376275Y214392D01*
X374880Y213558D01*
G01X386815Y203558D02*
X387900Y202517D01*
X389140Y202100D01*
X390380Y202517D01*
X391465Y203766D01*
X392240Y205642D01*
X392550Y207517D01*
Y209808D01*
X392240Y211683D01*
X391465Y213350D01*
X390535Y214183D01*
X389450Y214600D01*
X388210Y214183D01*
X387280Y213350D01*
X386660Y212100D01*
X386350Y210433D01*
X386660Y208975D01*
X387435Y207517D01*
X388365Y206683D01*
X389450Y206475D01*
X390690Y206891D01*
X391620Y207933D01*
X392550Y209808D01*
G01X401850Y201683D02*
X401540Y201892D01*
Y202308D01*
X401850Y202517D01*
X402160Y202308D01*
Y201892D01*
X401850Y201683D01*
G01X410840Y204600D02*
X411770Y203141D01*
X413010Y202308D01*
X414405Y202100D01*
X415645Y202308D01*
X416885Y203350D01*
X417660Y204600D01*
X417815Y205850D01*
X417505Y207308D01*
X416420Y208350D01*
X415335Y208767D01*
X413940D01*
G01X415335D02*
X416265Y209392D01*
X417040Y210433D01*
X417350Y211683D01*
X417040Y212933D01*
X416265Y213975D01*
X414870Y214600D01*
X413475Y214392D01*
X412080Y213558D01*
G01X426340Y202100D02*
X426650Y204808D01*
X427115Y207100D01*
X427735Y209183D01*
X428510Y211475D01*
X429750Y214600D01*
X423550D01*
G01X383250Y230200D02*
Y242700D01*
X381390Y240200D01*
G01Y230200D02*
X385110D01*
G01X392240Y232700D02*
X393170Y231241D01*
X394410Y230408D01*
X395805Y230200D01*
X397045Y230408D01*
X398285Y231450D01*
X399060Y232700D01*
X399215Y233950D01*
X398905Y235408D01*
X397820Y236450D01*
X396735Y236867D01*
X395340D01*
G01X396735D02*
X397665Y237492D01*
X398440Y238533D01*
X398750Y239783D01*
X398440Y241033D01*
X397665Y242075D01*
X396270Y242700D01*
X394875Y242492D01*
X393480Y241658D01*
G01X408050Y229783D02*
X407740Y229992D01*
Y230408D01*
X408050Y230617D01*
X408360Y230408D01*
Y229992D01*
X408050Y229783D01*
G01X420450Y242700D02*
X419210Y242283D01*
X418280Y241242D01*
X417660Y239992D01*
X417195Y238325D01*
X417040Y236450D01*
X417195Y234575D01*
X417660Y232908D01*
X418280Y231658D01*
X419210Y230617D01*
X420450Y230200D01*
X421690Y230617D01*
X422620Y231658D01*
X423240Y232908D01*
X423705Y234575D01*
X423860Y236450D01*
X423705Y238325D01*
X423240Y239992D01*
X422620Y241242D01*
X421690Y242283D01*
X420450Y242700D01*
G01X379995Y261516D02*
X381235Y260475D01*
X382630Y259850D01*
X383870D01*
X385110Y260475D01*
X386040Y261516D01*
X386505Y262975D01*
X386195Y264433D01*
X385420Y265683D01*
X384025Y266517D01*
X382165Y266933D01*
X381080Y267766D01*
X380615Y269225D01*
X380925Y270683D01*
X381700Y271725D01*
X382785Y272350D01*
X383870D01*
X384955Y271933D01*
X385885Y270892D01*
G01X393790Y272350D02*
X397510D01*
G01X395650D02*
Y259850D01*
G01X393790D02*
X397510D01*
G01X405105Y272350D02*
X410995D01*
X405105Y259850D01*
X410995D01*
G01X423550D02*
X417350D01*
Y272350D01*
X423550D01*
G01X421070Y266308D02*
X417350D01*
G01X496400Y278600D02*
Y166200D01*
G01X525850Y174000D02*
Y186500D01*
X529570D01*
X530810Y185875D01*
X531740Y184417D01*
X532050Y182750D01*
X531740Y181083D01*
X530965Y179833D01*
X529570Y179208D01*
X525850D01*
G01X538250Y186500D02*
Y174000D01*
X544450D01*
G01X549875D02*
X553750Y186500D01*
X557625Y174000D01*
G01X556230Y178375D02*
X551270D01*
G01X566150Y186500D02*
Y174000D01*
G01X562585Y186500D02*
X569715D01*
G01X581650Y174000D02*
X575450D01*
Y186500D01*
X581650D01*
G01X579170Y180458D02*
X575450D01*
G01X587540Y174000D02*
Y186500D01*
X590640D01*
X591880Y185875D01*
X592810Y185042D01*
X593585Y183792D01*
X594205Y182333D01*
X594360Y180250D01*
X594205Y178166D01*
X593585Y176708D01*
X592810Y175458D01*
X591880Y174625D01*
X590640Y174000D01*
X587540D01*
G01X525850Y202100D02*
Y214600D01*
X529570D01*
X530810Y213975D01*
X531740Y212517D01*
X532050Y210850D01*
X531740Y209183D01*
X530965Y207933D01*
X529570Y207308D01*
X525850D01*
G01X538250Y214600D02*
Y202100D01*
X544450D01*
G01X549875D02*
X553750Y214600D01*
X557625Y202100D01*
G01X556230Y206475D02*
X551270D01*
G01X566150Y214600D02*
Y202100D01*
G01X562585Y214600D02*
X569715D01*
G01X581650Y202100D02*
X575450D01*
Y214600D01*
X581650D01*
G01X579170Y208558D02*
X575450D01*
G01X587540Y202100D02*
Y214600D01*
X590640D01*
X591880Y213975D01*
X592810Y213142D01*
X593585Y211892D01*
X594205Y210433D01*
X594360Y208350D01*
X594205Y206266D01*
X593585Y204808D01*
X592810Y203558D01*
X591880Y202725D01*
X590640Y202100D01*
X587540D01*
G01X525850Y230200D02*
Y242700D01*
X529570D01*
X530810Y242075D01*
X531740Y240617D01*
X532050Y238950D01*
X531740Y237283D01*
X530965Y236033D01*
X529570Y235408D01*
X525850D01*
G01X538250Y242700D02*
Y230200D01*
X544450D01*
G01X549875D02*
X553750Y242700D01*
X557625Y230200D01*
G01X556230Y234575D02*
X551270D01*
G01X566150Y242700D02*
Y230200D01*
G01X562585Y242700D02*
X569715D01*
G01X581650Y230200D02*
X575450D01*
Y242700D01*
X581650D01*
G01X579170Y236659D02*
X575450D01*
G01X587540Y230200D02*
Y242700D01*
X590640D01*
X591880Y242075D01*
X592810Y241242D01*
X593585Y239992D01*
X594205Y238533D01*
X594360Y236450D01*
X594205Y234366D01*
X593585Y232908D01*
X592810Y231658D01*
X591880Y230825D01*
X590640Y230200D01*
X587540D01*
G01X525850Y259850D02*
Y272350D01*
X529570D01*
X530810Y271725D01*
X531740Y270267D01*
X532050Y268600D01*
X531740Y266933D01*
X530965Y265683D01*
X529570Y265058D01*
X525850D01*
G01X538250Y272350D02*
Y259850D01*
X544450D01*
G01X549875D02*
X553750Y272350D01*
X557625Y259850D01*
G01X556230Y264225D02*
X551270D01*
G01X566150Y272350D02*
Y259850D01*
G01X562585Y272350D02*
X569715D01*
G01X581650Y259850D02*
X575450D01*
Y272350D01*
X581650D01*
G01X579170Y266308D02*
X575450D01*
G01X587540Y259850D02*
Y272350D01*
X590640D01*
X591880Y271725D01*
X592810Y270892D01*
X593585Y269642D01*
X594205Y268183D01*
X594360Y266100D01*
X594205Y264016D01*
X593585Y262558D01*
X592810Y261308D01*
X591880Y260475D01*
X590640Y259850D01*
X587540D01*
G01X623500Y278600D02*
Y166200D01*
G01X652640Y175875D02*
X653570Y174833D01*
X654655Y174208D01*
X656050Y174000D01*
X657445Y174417D01*
X658530Y175250D01*
X659305Y176708D01*
X659460Y178375D01*
X659150Y180042D01*
X658375Y181083D01*
X657290Y181916D01*
X656205Y182125D01*
X655120Y181916D01*
X653725Y181083D01*
X654190Y186500D01*
X658375D01*
G01X665505Y179208D02*
X666590Y180667D01*
X667520Y181500D01*
X668760Y181916D01*
X669845Y181500D01*
X670620Y180667D01*
X671240Y179417D01*
X671395Y177958D01*
X671240Y176708D01*
X670620Y175458D01*
X669690Y174417D01*
X668605Y174000D01*
X667365Y174417D01*
X666280Y175666D01*
X665660Y177542D01*
X665505Y179625D01*
X665815Y182333D01*
X666280Y183792D01*
X667055Y185250D01*
X668140Y186292D01*
X669225Y186500D01*
X670310Y186083D01*
X671085Y185042D01*
G01X653105Y235408D02*
X654190Y236867D01*
X655120Y237700D01*
X656360Y238117D01*
X657445Y237700D01*
X658220Y236867D01*
X658840Y235617D01*
X658995Y234158D01*
X658840Y232908D01*
X658220Y231658D01*
X657290Y230617D01*
X656205Y230200D01*
X654965Y230617D01*
X653880Y231866D01*
X653260Y233742D01*
X653105Y235825D01*
X653415Y238533D01*
X653880Y239992D01*
X654655Y241450D01*
X655740Y242492D01*
X656825Y242700D01*
X657910Y242283D01*
X658685Y241242D01*
G01X665040Y232075D02*
X665970Y231033D01*
X667055Y230408D01*
X668450Y230200D01*
X669845Y230617D01*
X670930Y231450D01*
X671705Y232908D01*
X671860Y234575D01*
X671550Y236242D01*
X670775Y237283D01*
X669690Y238117D01*
X668605Y238325D01*
X667520Y238117D01*
X666125Y237283D01*
X666590Y242700D01*
X670775D01*
G01X649850Y259850D02*
X648610Y260058D01*
X647525Y260891D01*
X646595Y262142D01*
X645975Y263600D01*
X645665Y265267D01*
Y266933D01*
X645975Y268600D01*
X646595Y270058D01*
X647525Y271308D01*
X648610Y272142D01*
X649850Y272350D01*
X651090Y272142D01*
X652175Y271308D01*
X653105Y270058D01*
X653725Y268600D01*
X654035Y266933D01*
Y265267D01*
X653725Y263600D01*
X653105Y262142D01*
X652175Y260891D01*
X651090Y260058D01*
X649850Y259850D01*
G01X651090Y263183D02*
X652950Y259850D01*
G01X662250Y272350D02*
Y259850D01*
G01X658685Y272350D02*
X665815D01*
G01X674650Y259850D02*
Y265475D01*
X671550Y272350D01*
G01X677750D02*
X674650Y265475D01*
G01X659305Y207308D02*
X660390Y208767D01*
X661320Y209600D01*
X662560Y210016D01*
X663645Y209600D01*
X664420Y208767D01*
X665040Y207517D01*
X665195Y206058D01*
X665040Y204808D01*
X664420Y203558D01*
X663490Y202517D01*
X662405Y202100D01*
X661165Y202517D01*
X660080Y203766D01*
X659460Y205642D01*
X659305Y207725D01*
X659615Y210433D01*
X660080Y211892D01*
X660855Y213350D01*
X661940Y214392D01*
X663025Y214600D01*
X664110Y214183D01*
X664885Y213142D01*
M02*
