G04 ================== begin FILE IDENTIFICATION RECORD ==================*
G04 Layout Name:  snoic_test.brd*
G04 Film Name:    BOTTOM*
G04 File Format:  Gerber RS274X*
G04 File Origin:  Cadence Allegro 16.6-P004*
G04 Origin Date:  Tue Nov 04 00:15:37 2014*
G04 *
G04 Layer:  BOARD GEOMETRY/OUTLINE*
G04 Layer:  ETCH/BOTTOM*
G04 Layer:  PIN/BOTTOM*
G04 Layer:  VIA CLASS/BOTTOM*
G04 *
G04 Offset:    (0.000 0.000)*
G04 Mirror:    No*
G04 Mode:      Positive*
G04 Rotation:  0*
G04 FullContactRelief:  No*
G04 UndefLineWidth:     10.000*
G04 ================== end FILE IDENTIFICATION RECORD ====================*
%FSLAX25Y25*MOIN*%
%IR0*IPPOS*OFA0.00000B0.00000*MIA0B0*SFA1.00000B1.00000*%
%ADD18R,.06X.05*%
%ADD17R,.05X.06*%
%ADD19R,.032X.035*%
%ADD13R,.035X.032*%
%ADD14C,.024*%
%ADD10C,.070909*%
%ADD16R,.059055X.059055*%
%ADD11R,.070909X.070909*%
%ADD12R,.030299X.040598*%
%ADD15R,.040598X.030299*%
%ADD20C,.006*%
%ADD21C,.02*%
%ADD22C,.03*%
%ADD23C,.04*%
%ADD24C,.05*%
G75*
%LPD*%
G75*
G36*
G01X25322Y5418D02*
X26515Y6880D01*
X25000Y9160D01*
X23485Y6880D01*
X24678Y5418D01*
G03X25322I322J947D01*
G37*
G36*
G01X24678Y19092D02*
X23485Y17630D01*
X25000Y15350D01*
X26515Y17630D01*
X25322Y19092D01*
G03X24678I-322J-947D01*
G37*
G36*
G01X25394Y18631D02*
X26750Y20300D01*
X25000Y22150D01*
X23250Y20300D01*
X24606Y18631D01*
G03X25394I394J919D01*
G37*
G36*
G01X30606Y25169D02*
X29250Y23500D01*
X31000Y21650D01*
X32750Y23500D01*
X31394Y25169D01*
G03X30606I-394J-919D01*
G37*
G36*
G01X25322Y24718D02*
X26515Y26180D01*
X25000Y28460D01*
X23485Y26180D01*
X24678Y24718D01*
G03X25322I322J947D01*
G37*
G36*
G01X24606Y25169D02*
X23250Y23500D01*
X25000Y21650D01*
X26750Y23500D01*
X25394Y25169D01*
G03X24606I-394J-919D01*
G37*
G36*
G01X25707Y41693D02*
X27507Y43493D01*
X25000Y46250D01*
X22493Y43493D01*
X24293Y41693D01*
G03X25707I707J707D01*
G37*
G36*
G01X24678Y38392D02*
X23485Y36930D01*
X25000Y34650D01*
X26515Y36930D01*
X25322Y38392D01*
G03X24678I-322J-947D01*
G37*
G36*
G01X42463Y102438D02*
X44385Y100860D01*
X46150Y102890D01*
X44385Y104920D01*
X42463Y103342D01*
G03Y102438I892J-452D01*
G37*
G36*
G01X43718Y31678D02*
X45180Y30485D01*
X47460Y32000D01*
X45180Y33515D01*
X43718Y32322D01*
G03Y31678I947J-322D01*
G37*
G36*
G01X46858Y48237D02*
X45280Y46315D01*
X47310Y44550D01*
X49340Y46315D01*
X47762Y48237D01*
G03X46858I-452J-892D01*
G37*
G36*
G01X46222Y92708D02*
X47415Y94170D01*
X45900Y96450D01*
X44385Y94170D01*
X45578Y92708D01*
G03X46222I322J947D01*
G37*
G36*
G01X45457Y93542D02*
X43001Y91153D01*
X45915Y87950D01*
X48829Y91153D01*
X46373Y93542D01*
G03X45457I-458J-889D01*
G37*
G36*
G01X57392Y32322D02*
X55930Y33515D01*
X53650Y32000D01*
X55930Y30485D01*
X57392Y31678D01*
G03Y32322I-947J322D01*
G37*
G36*
G01X57014Y31649D02*
X58550Y30400D01*
X60550Y32000D01*
X58550Y33600D01*
X57014Y32351D01*
G03Y31649I936J-351D01*
G37*
G36*
G01X57492Y45122D02*
X56030Y46315D01*
X53750Y44800D01*
X56030Y43285D01*
X57492Y44478D01*
G03Y45122I-947J322D01*
G37*
G36*
G01X58014Y44449D02*
X59550Y43200D01*
X61550Y44800D01*
X59550Y46400D01*
X58014Y45151D01*
G03Y44449I936J-351D01*
G37*
G36*
G01X65048Y93940D02*
X62647Y91153D01*
X65600Y87950D01*
X68553Y91153D01*
X66152Y93940D01*
G03X65048I-552J-834D01*
G37*
G36*
G01X62163Y102138D02*
X64085Y100560D01*
X65850Y102590D01*
X64085Y104620D01*
X62163Y103042D01*
G03Y102138I892J-452D01*
G37*
G36*
G01X63914Y124843D02*
X65900Y127200D01*
X63400Y130450D01*
X60900Y127200D01*
X62886Y124843D01*
G03X63914I514J857D01*
G37*
G36*
G01X53914Y122149D02*
X55450Y120900D01*
X57450Y122500D01*
X55450Y124100D01*
X53914Y122851D01*
G03Y122149I936J-351D01*
G37*
G36*
G01X57780Y129928D02*
X60900Y127200D01*
X63650Y130184D01*
X60900Y133200D01*
X57839Y131148D01*
G03X57780Y129928I761J-648D01*
G37*
G36*
G01X63222Y234108D02*
X64415Y235570D01*
X62900Y237850D01*
X61385Y235570D01*
X62578Y234108D01*
G03X63222I322J947D01*
G37*
G36*
G01X62578Y247782D02*
X61385Y246320D01*
X62900Y244040D01*
X64415Y246320D01*
X63222Y247782D01*
G03X62578I-322J-947D01*
G37*
G36*
G01X66694Y28731D02*
X68050Y30400D01*
X66300Y32250D01*
X64550Y30400D01*
X65906Y28731D01*
G03X66694I394J919D01*
G37*
G36*
G01X73286Y41257D02*
X71300Y38900D01*
X73800Y35650D01*
X76300Y38900D01*
X74314Y41257D01*
G03X73286I-514J-857D01*
G37*
G36*
G01X67694Y41531D02*
X69050Y43200D01*
X67300Y45050D01*
X65550Y43200D01*
X66906Y41531D01*
G03X67694I394J919D01*
G37*
G36*
G01X65922Y92408D02*
X67115Y93870D01*
X65600Y96150D01*
X64085Y93870D01*
X65278Y92408D01*
G03X65922I322J947D01*
G37*
G36*
G01X65278Y106082D02*
X64085Y104620D01*
X65600Y102340D01*
X67115Y104620D01*
X65922Y106082D01*
G03X65278I-322J-947D01*
G37*
G36*
G01X65614Y122149D02*
X67150Y120900D01*
X69150Y122500D01*
X67150Y124100D01*
X65614Y122851D01*
G03Y122149I936J-351D01*
G37*
G36*
G01X75414Y124843D02*
X77400Y127200D01*
X74900Y130450D01*
X72400Y127200D01*
X74386Y124843D01*
G03X75414I514J857D01*
G37*
G36*
G01X74506Y125769D02*
X73150Y124100D01*
X74900Y122250D01*
X76650Y124100D01*
X75294Y125769D01*
G03X74506I-394J-919D01*
G37*
G36*
G01X75294Y119231D02*
X76650Y120900D01*
X74900Y122750D01*
X73150Y120900D01*
X74506Y119231D01*
G03X75294I394J919D01*
G37*
G36*
G01X65614Y137549D02*
X67150Y136300D01*
X69150Y137900D01*
X67150Y139500D01*
X65614Y138251D01*
G03Y137549I936J-351D01*
G37*
G36*
G01X75294Y134631D02*
X76650Y136300D01*
X74900Y138150D01*
X73150Y136300D01*
X74506Y134631D01*
G03X75294I394J919D01*
G37*
G36*
G01X74386Y135557D02*
X72400Y133200D01*
X74900Y129950D01*
X77400Y133200D01*
X75414Y135557D01*
G03X74386I-514J-857D01*
G37*
G36*
G01X74914Y141624D02*
X73150Y139500D01*
X74857Y137654D01*
X76650Y139500D01*
X76107Y141457D01*
G03X74914Y141624I-707J-707D01*
G37*
G36*
G01X74801Y218700D02*
X74601Y218900D01*
X74052Y218990D01*
X74285Y217700D01*
X74801D01*
Y218700D01*
G37*
G36*
G01X69322Y234108D02*
X70515Y235570D01*
X69000Y237850D01*
X67485Y235570D01*
X68678Y234108D01*
G03X69322I322J947D01*
G37*
G36*
G01X68678Y247782D02*
X67485Y246320D01*
X69000Y244040D01*
X70515Y246320D01*
X69322Y247782D01*
G03X68678I-322J-947D01*
G37*
G36*
G01X79128Y31385D02*
X77586Y30100D01*
X79300Y28250D01*
X81014Y30100D01*
X79472Y31385D01*
G03X79128I-172J-985D01*
G37*
G36*
G01X79694Y25231D02*
X81050Y26900D01*
X79300Y28750D01*
X77550Y26900D01*
X78906Y25231D01*
G03X79694I394J919D01*
G37*
G36*
G01X84906Y31769D02*
X83550Y30100D01*
X85300Y28250D01*
X87050Y30100D01*
X85694Y31769D01*
G03X84906I-394J-919D01*
G37*
G36*
G01X89086Y30899D02*
X83550Y30100D01*
X85066Y28413D01*
X87050Y26900D01*
X89882Y29345D01*
G03X89086Y30899I-832J555D01*
G37*
G36*
G01X85814Y30543D02*
X87800Y32900D01*
X85300Y36150D01*
X82800Y32900D01*
X84786Y30543D01*
G03X85814I514J857D01*
G37*
G36*
G01X95585Y22260D02*
X98615Y23260D01*
X97250Y25490D01*
X95585Y27320D01*
X94585Y23260D01*
G03X95585Y22260I1000J0D01*
G37*
G36*
G01X93406Y189769D02*
X92050Y188100D01*
X93800Y186250D01*
X95550Y188100D01*
X94194Y189769D01*
G03X93406I-394J-919D01*
G37*
G36*
G01X94799Y191152D02*
X93500Y196900D01*
X90823Y194077D01*
X88500Y190900D01*
X93838Y190101D01*
G03X94799Y191152I-38J999D01*
G37*
G36*
G01X91228Y200020D02*
X88500Y196900D01*
X90963Y193653D01*
X93500Y196900D01*
X92604Y199794D01*
G03X91228Y200020I-804J-594D01*
G37*
G36*
G01X93243Y267986D02*
X95600Y266000D01*
X98850Y268500D01*
X95600Y271000D01*
X93243Y269014D01*
G03Y267986I857J-515D01*
G37*
G36*
G01X88700Y284400D02*
Y296200D01*
X110600D01*
Y284400D01*
X88700D01*
G37*
G36*
G01X100537Y19052D02*
X98615Y20630D01*
X96850Y18600D01*
X98615Y16570D01*
X100537Y18148D01*
G03Y19052I-892J452D01*
G37*
G36*
G01X106107Y18707D02*
X103815Y20630D01*
X102052Y18634D01*
X103815Y16570D01*
X105996Y17540D01*
G03X106107Y18707I-752J660D01*
G37*
G36*
G01X98863Y18148D02*
X100785Y16570D01*
X102550Y18600D01*
X100785Y20630D01*
X98863Y19052D01*
G03Y18148I892J-452D01*
G37*
G36*
G01Y24838D02*
X100785Y23260D01*
X102550Y25290D01*
X100785Y27320D01*
X98863Y25742D01*
G03Y24838I892J-452D01*
G37*
G36*
G01X99063Y33058D02*
X100985Y31480D01*
X102750Y33510D01*
X100985Y35540D01*
X99063Y33962D01*
G03Y33058I892J-452D01*
G37*
G36*
G01X100537Y33962D02*
X98615Y35540D01*
X96850Y33510D01*
X98615Y31480D01*
X100537Y33058D01*
G03Y33962I-892J452D01*
G37*
G36*
G01X97422Y30018D02*
X98615Y31480D01*
X97100Y33760D01*
X95585Y31480D01*
X96778Y30018D01*
G03X97422I322J947D01*
G37*
G36*
G01X96778Y28782D02*
X95585Y27320D01*
X97100Y25040D01*
X98615Y27320D01*
X97422Y28782D01*
G03X96778I-322J-947D01*
G37*
G36*
G01X100537Y25742D02*
X98615Y27320D01*
X96850Y25290D01*
X98615Y23260D01*
X100537Y24838D01*
G03Y25742I-892J452D01*
G37*
G36*
G01Y40652D02*
X98615Y42230D01*
X96850Y40200D01*
X98615Y38170D01*
X100537Y39748D01*
G03Y40652I-892J452D01*
G37*
G36*
G01X99063Y39748D02*
X100985Y38170D01*
X102750Y40200D01*
X100985Y42230D01*
X99063Y40652D01*
G03Y39748I892J-452D01*
G37*
G36*
G01X106307Y40307D02*
X104015Y42230D01*
X102252Y40234D01*
X104015Y38170D01*
X106196Y39140D01*
G03X106307Y40307I-752J660D01*
G37*
G36*
G01X99406Y189769D02*
X98050Y188100D01*
X99800Y186250D01*
X101550Y188100D01*
X100194Y189769D01*
G03X99406I-394J-919D01*
G37*
G36*
G01X98831Y183227D02*
X101550Y184900D01*
X99916Y186722D01*
X98050Y188100D01*
X97610Y184060D01*
G03X98831Y183227I990J140D01*
G37*
G36*
G01X99742Y190202D02*
X105000Y190900D01*
X102677Y194077D01*
X100000Y196900D01*
X98801Y191235D01*
G03X99742Y190202I999J-35D01*
G37*
G36*
G01X99155Y251668D02*
X101600Y254500D01*
X98600Y257250D01*
X95600Y254500D01*
X98045Y251668D01*
G03X99155I555J832D01*
G37*
G36*
G01X105849Y271786D02*
X104600Y270250D01*
X106200Y268250D01*
X107800Y270250D01*
X106551Y271786D01*
G03X105849I-351J-936D01*
G37*
G36*
G01X118037Y19052D02*
X116115Y20630D01*
X114350Y18600D01*
X116115Y16570D01*
X118037Y18148D01*
G03Y19052I-892J452D01*
G37*
G36*
G01X111578Y20504D02*
X113085Y16570D01*
X114777Y18423D01*
X116115Y20630D01*
X112570Y21630D01*
G03X111578Y20504I0J-1000D01*
G37*
G36*
G01X118037Y25742D02*
X116115Y27320D01*
X114350Y25290D01*
X116115Y23260D01*
X118037Y24838D01*
G03Y25742I-892J452D01*
G37*
G36*
G01Y33862D02*
X116115Y35440D01*
X114350Y33410D01*
X116115Y31380D01*
X118037Y32958D01*
G03Y33862I-892J452D01*
G37*
G36*
G01Y40552D02*
X116115Y42130D01*
X114350Y40100D01*
X116115Y38070D01*
X118037Y39648D01*
G03Y40552I-892J452D01*
G37*
G36*
G01X116363Y18148D02*
X118285Y16570D01*
X120050Y18600D01*
X118285Y20630D01*
X116363Y19052D01*
G03Y18148I892J-452D01*
G37*
G36*
G01Y24838D02*
X118285Y23260D01*
X120050Y25290D01*
X118285Y27320D01*
X116363Y25742D01*
G03Y24838I892J-452D01*
G37*
G36*
G01X119478Y28782D02*
X118285Y27320D01*
X119800Y25040D01*
X121315Y27320D01*
X120122Y28782D01*
G03X119478I-322J-947D01*
G37*
G36*
G01X120022Y29918D02*
X121215Y31380D01*
X119700Y33660D01*
X118185Y31380D01*
X119378Y29918D01*
G03X120022I322J947D01*
G37*
G36*
G01X116263Y32958D02*
X118185Y31380D01*
X119950Y33410D01*
X118185Y35440D01*
X116263Y33862D01*
G03Y32958I892J-452D01*
G37*
G36*
G01Y39648D02*
X118185Y38070D01*
X119950Y40100D01*
X118185Y42130D01*
X116263Y40552D01*
G03Y39648I892J-452D01*
G37*
G36*
G01X126817Y195100D02*
X127100D01*
X128101Y196049D01*
X127052Y196748D01*
X126110Y195807D01*
X126817Y195100D01*
G37*
G36*
G01X146448Y10137D02*
X144870Y8215D01*
X146900Y6450D01*
X148930Y8215D01*
X147352Y10137D01*
G03X146448I-452J-892D01*
G37*
G36*
G01X146822Y10103D02*
X152000Y10700D01*
X149677Y13877D01*
X147000Y16700D01*
X145900Y11118D01*
G03X146822Y10103I1000J-18D01*
G37*
G36*
G01X145790Y25990D02*
X146900Y20400D01*
X149577Y23223D01*
X151900Y26400D01*
X146714Y27007D01*
G03X145790Y25990I76J-997D01*
G37*
G36*
G01X139648Y33837D02*
X138070Y31915D01*
X140100Y30150D01*
X142130Y31915D01*
X140552Y33837D01*
G03X139648I-452J-892D01*
G37*
G36*
G01X147242Y26963D02*
X148820Y28885D01*
X146790Y30650D01*
X144760Y28885D01*
X146338Y26963D01*
G03X147242I452J892D01*
G37*
G36*
G01X142455Y42455D02*
X145000Y42455D01*
X145177Y46177D01*
X141455Y46000D01*
X141455Y43455D01*
G03X142455Y42455I1000J0D01*
G37*
G36*
G01X140693Y65293D02*
X142493Y63493D01*
X145250Y66000D01*
X142493Y68507D01*
X140693Y66707D01*
G03Y65293I707J-707D01*
G37*
G36*
G01X148545Y163455D02*
X148545Y166000D01*
X144823Y166177D01*
X145000Y162455D01*
X147545Y162455D01*
G03X148545Y163455I0J1000D01*
G37*
G36*
G01Y173455D02*
X148545Y176000D01*
X144823Y176177D01*
X145000Y172455D01*
X147545Y172455D01*
G03X148545Y173455I0J1000D01*
G37*
G36*
G01X154832Y14255D02*
X152000Y16700D01*
X149250Y13700D01*
X152000Y10700D01*
X154832Y13145D01*
G03Y14255I-832J555D01*
G37*
G36*
G01X154732Y23955D02*
X151900Y26400D01*
X149150Y23400D01*
X151900Y20400D01*
X154732Y22845D01*
G03Y23955I-832J555D01*
G37*
G54D10*
X25000Y46000D03*
Y56000D03*
Y66000D03*
Y76000D03*
Y86000D03*
Y96000D03*
Y106000D03*
Y116000D03*
Y126000D03*
Y136000D03*
Y146000D03*
Y156000D03*
Y166000D03*
Y176000D03*
Y186000D03*
Y196000D03*
Y206000D03*
Y216000D03*
Y226000D03*
Y236000D03*
Y246000D03*
Y256000D03*
Y266000D03*
Y276000D03*
Y286000D03*
Y296000D03*
Y306000D03*
X145000Y46000D03*
Y56000D03*
Y66000D03*
Y76000D03*
Y86000D03*
Y96000D03*
Y106000D03*
Y116000D03*
Y126000D03*
Y136000D03*
Y146000D03*
Y156000D03*
Y166000D03*
Y176000D03*
Y186000D03*
Y196000D03*
Y206000D03*
Y216000D03*
Y226000D03*
Y236000D03*
Y246000D03*
Y256000D03*
Y266000D03*
Y276000D03*
Y286000D03*
Y296000D03*
Y306000D03*
G54D20*
G01X0Y0D02*
X170000D01*
Y333071D01*
X0D01*
Y0D01*
G54D11*
X25000Y316000D03*
X145000D03*
G54D21*
G01X25000Y8910D02*
Y4700D01*
X27000Y2700D01*
X160800D01*
X167200Y9100D01*
Y98000D01*
X164700Y100500D01*
G01X31000Y21900D02*
Y31600D01*
G01X25000Y21900D02*
Y15600D01*
G01Y28210D02*
Y21900D01*
G01Y46000D02*
Y34900D01*
G01X49000Y303200D02*
X37800D01*
X25000Y316000D01*
G01X47210Y32000D02*
X42700D01*
G01X45900Y102890D02*
X42885D01*
X39900Y105875D01*
Y152300D01*
X45000Y157400D01*
G01X53900Y32000D02*
X60300D01*
G01X54000Y44800D02*
X61300D01*
G01X47310D02*
Y51890D01*
G01X45900Y96200D02*
Y92668D01*
X45915Y92653D01*
Y88200D01*
G01X69000Y237600D02*
Y234070D01*
X48800Y213870D01*
Y114700D01*
X60910Y102590D01*
X65600D01*
G01X52300Y122500D02*
X57200D01*
G01X45000Y157400D02*
Y216170D01*
X62900Y234070D01*
Y237600D01*
G01X64900Y109874D02*
Y106820D01*
X65600Y106120D01*
Y102590D01*
G01X64900Y122500D02*
X63200D01*
G01X63400Y130200D02*
Y124000D01*
X64900Y122500D01*
G01X60400Y164300D02*
X58200Y162100D01*
Y130500D01*
G01X64200Y137900D02*
X68900D01*
G01X58200Y130500D02*
X63100D01*
X63400Y130200D01*
G01X57000Y177600D02*
X60200D01*
G01X56200Y213300D02*
X59400D01*
X60400Y214300D01*
G01X62900Y263700D02*
Y244290D01*
G01X66300Y32000D02*
Y25600D01*
G01X73800Y35900D02*
Y54100D01*
X81600Y61900D01*
G01X79300Y28500D02*
Y30400D01*
X77861Y31839D01*
X77361D01*
X73800Y35400D01*
Y35900D01*
G01X68400Y38900D02*
X68300D01*
X67300Y39900D01*
Y44800D01*
G01X65600Y95900D02*
Y88200D01*
G01X72600Y108600D02*
X74900Y110900D01*
Y122500D01*
G01X64900D02*
X68900D01*
G01X74900Y130200D02*
Y122500D01*
G01Y130200D02*
Y137900D01*
G01X75400Y142400D02*
Y138400D01*
X74900Y137900D01*
G01X76800Y203100D02*
X73900Y200200D01*
Y169764D01*
X93600Y150064D01*
Y145500D01*
G01X73901Y212101D02*
X84400Y201603D01*
Y191729D01*
X84400Y188900D01*
X86800Y186500D01*
X93800D01*
G01X74285Y218900D02*
X74601D01*
X77651Y215851D01*
G01X68900Y262900D02*
Y247920D01*
X69000Y247820D01*
Y244290D01*
G01X73300Y309800D02*
X90500D01*
G01X97100Y25290D02*
Y24775D01*
X94524Y22199D01*
X82501D01*
X79300Y25400D01*
Y28500D01*
G01X89700Y29900D02*
X86700D01*
X85300Y28500D01*
G01D02*
Y35900D01*
G01X113500Y126500D02*
Y148500D01*
X100500Y161500D01*
X86618D01*
X78600Y169518D01*
Y195800D01*
G01X84100Y170300D02*
X86009Y172209D01*
X86609D01*
X95800Y181400D01*
G01X78700Y242900D02*
X75400D01*
G01X98600Y268500D02*
X83600D01*
X83100Y269000D01*
G01X95800Y157500D02*
Y151400D01*
X101900Y145300D01*
G01X99800Y186500D02*
Y185400D01*
X98600Y184200D01*
Y184086D01*
X98014Y183500D01*
X97900D01*
X95800Y181400D01*
G01X93800Y186500D02*
Y191100D01*
X91000Y193900D01*
G01X91800Y199900D02*
Y194700D01*
X91000Y193900D01*
G01X96400Y242900D02*
X98600Y245100D01*
Y257000D01*
G01X102300Y18600D02*
X97100D01*
G01X106500Y18200D02*
X102700D01*
X102300Y18600D01*
G01X97100Y25290D02*
X102300D01*
G01X97100D02*
Y33510D01*
G01X114564Y33410D02*
X114464Y33510D01*
X102500D01*
G01X106695Y40767D02*
X105728Y39800D01*
X102900D01*
X102500Y40200D01*
G01X97100Y33510D02*
X102500D01*
G01Y40200D02*
X97100D01*
G01X145000Y66000D02*
X108200D01*
X98600Y75600D01*
Y109300D01*
G01X130100Y215100D02*
X132009Y213191D01*
Y115794D01*
X104415Y88200D01*
G01X121900Y175700D02*
X114000Y167800D01*
X101900D01*
X98400Y171300D01*
Y179300D01*
G01X99800Y186500D02*
Y191200D01*
X102500Y193900D01*
G01X104400Y240200D02*
X123800Y259600D01*
Y262900D01*
G01X104600Y244800D02*
Y249000D01*
X123500Y267900D01*
G01X106200Y274600D02*
Y268500D01*
G01X109400Y22300D02*
X110900D01*
X114600Y18600D01*
G01X119800D02*
X114600D01*
G01X109400Y29000D02*
X112100D01*
X114564Y31464D01*
Y33410D01*
G01X114600Y25290D02*
X119800D01*
G01X114564Y33410D02*
X114600D01*
G01X109800Y37500D02*
X112000D01*
X114600Y40100D01*
G01Y33410D02*
X119700D01*
G01X114600Y40100D02*
X119700D01*
G01X112300Y171100D02*
X115000Y173800D01*
Y191100D01*
G01X115100Y195100D02*
X127100D01*
X127900Y195900D01*
G01X119800Y25290D02*
Y29780D01*
X119700Y29880D01*
Y33410D01*
G01X146900Y6700D02*
Y11100D01*
X149500Y13700D01*
G01X140100Y30400D02*
Y41100D01*
X145000Y46000D01*
G01X146790Y30400D02*
Y26010D01*
X149400Y23400D01*
G01X155900Y23300D02*
Y155100D01*
X145000Y166000D01*
G01Y176000D02*
X160100Y160900D01*
Y18100D01*
X155700Y13700D01*
G01X164700Y117000D02*
Y296300D01*
X145000Y316000D01*
G01X155700Y13700D02*
X149500D01*
G01X149400Y23400D02*
X155800D01*
X155900Y23300D01*
G54D12*
X25000Y8910D03*
Y15600D03*
Y28210D03*
Y34900D03*
X45900Y96200D03*
Y102890D03*
X62900Y237600D03*
Y244290D03*
X65600Y95900D03*
Y102590D03*
X69000Y237600D03*
Y244290D03*
X102300Y18600D03*
X97100D03*
X102300Y25290D03*
X97100D03*
Y33510D03*
X102500D03*
X97100Y40200D03*
X102500D03*
X114600Y18600D03*
Y25290D03*
Y33410D03*
Y40100D03*
X119800Y18600D03*
Y25290D03*
X119700Y33410D03*
Y40100D03*
G54D22*
G01X106200Y262500D02*
X104100D01*
X98600Y257000D01*
G01X106200Y268500D02*
X98600D01*
G01X140210Y6700D02*
Y11490D01*
X138000Y13700D01*
G01X137900Y23400D02*
Y13800D01*
X138000Y13700D01*
G01X140100Y30400D02*
Y25600D01*
X137900Y23400D01*
G54D13*
X25000Y21900D03*
X31000D03*
X60300Y32000D03*
X61300Y44800D03*
X63200Y122500D03*
X57200D03*
X66300Y32000D03*
X67300Y44800D03*
X68900Y122500D03*
X74900D03*
Y137900D03*
X68900D03*
X79300Y28500D03*
X85300D03*
X93800Y186500D03*
X99800D03*
G54D23*
G01X81600Y61900D02*
X80400Y63100D01*
X48800D01*
X31700Y46000D01*
X25000D01*
G01X60000Y170600D02*
Y164700D01*
X60400Y164300D01*
G01X81600Y139500D02*
Y143100D01*
X60400Y164300D01*
G01X60200Y177600D02*
X60400Y177800D01*
Y214300D01*
G01X60000Y170600D02*
Y177400D01*
X60200Y177600D01*
G01X60400Y214300D02*
X75400Y229300D01*
Y242900D01*
G01D02*
Y284500D01*
X64500Y295400D01*
Y316000D01*
G01X85451Y149749D02*
X68100Y167100D01*
Y206300D01*
X73901Y212101D01*
G01D02*
X77651Y215851D01*
G01X85300Y35900D02*
Y41400D01*
X87700Y43800D01*
Y104600D01*
G01X81600Y61900D02*
Y68900D01*
G01D02*
Y87500D01*
G01X81400Y68300D02*
Y68700D01*
X81600Y68900D01*
G01Y87500D02*
Y116600D01*
G01X81500Y88200D02*
Y87600D01*
X81600Y87500D01*
G01Y116600D02*
Y139500D01*
G01X81940Y116760D02*
X81760D01*
X81600Y116600D01*
G01X82000Y139600D02*
X81700D01*
X81600Y139500D01*
G01X87700Y104600D02*
Y147500D01*
X85451Y149749D01*
G01X83100Y269000D02*
Y221300D01*
X77651Y215851D01*
G01X89800Y286800D02*
X87300D01*
X83100Y282600D01*
Y269000D01*
G01X88300Y105300D02*
Y105200D01*
X87700Y104600D01*
G54D14*
X31000Y31600D03*
X42700Y32000D03*
X47310Y51890D03*
X52300Y122500D03*
X45000Y157400D03*
X49000Y303200D03*
X64900Y109874D03*
X58200Y130500D03*
X64200Y137900D03*
X60000Y170600D03*
X57000Y177600D03*
X56200Y213300D03*
X62900Y263700D03*
X66300Y25600D03*
X68400Y38900D03*
X72600Y108600D03*
X75400Y142400D03*
X74285Y218900D03*
X68900Y262900D03*
X73300Y309800D03*
X81400Y68300D03*
X81500Y88200D03*
X81940Y116760D03*
X82000Y139600D03*
X85451Y149749D03*
X84100Y170300D03*
X78600Y195800D03*
X76800Y203100D03*
X78700Y242900D03*
X89700Y29900D03*
X88300Y105300D03*
X93600Y145500D03*
X95800Y157500D03*
Y181400D03*
X91800Y199900D03*
X96400Y242900D03*
X93700Y287000D03*
X90500Y309800D03*
X106500Y18200D03*
X106695Y40767D03*
X98600Y109300D03*
X101900Y145300D03*
X98400Y179300D03*
X104400Y240200D03*
X104600Y244800D03*
X106200Y274600D03*
X102800Y286800D03*
X98000Y286900D03*
X109400Y22300D03*
Y29000D03*
X109800Y37500D03*
X113500Y126500D03*
X112300Y171100D03*
X115000Y191100D03*
X115100Y195100D03*
X107500Y286700D03*
X121900Y175700D03*
X127900Y195900D03*
X123800Y262900D03*
X123500Y267900D03*
X130100Y215100D03*
X155700Y13700D03*
X155900Y23300D03*
X164700Y100500D03*
Y117000D03*
G54D24*
G01X64500Y316000D02*
X25000D01*
G01X145000D02*
X64500D01*
G54D15*
X47210Y32000D03*
X53900D03*
X47310Y44800D03*
X54000D03*
X140210Y6700D03*
X146900D03*
X146790Y30400D03*
X140100D03*
G54D16*
X45915Y88200D03*
X65600D03*
X56300Y251400D03*
Y271085D03*
X104415Y88200D03*
X124100D03*
G54D17*
X63400Y130200D03*
X73800Y35900D03*
X74900Y130200D03*
X85300Y35900D03*
X91000Y193900D03*
X102500D03*
X138000Y13700D03*
X137900Y23400D03*
X149500Y13700D03*
X149400Y23400D03*
G54D18*
X98600Y257000D03*
Y268500D03*
G54D19*
X106200Y262500D03*
Y268500D03*
M02*
