G04 ================== begin FILE IDENTIFICATION RECORD ==================*
G04 Layout Name:  snoic_test.brd*
G04 Film Name:    SILKSCREEN_BOTTOM*
G04 File Format:  Gerber RS274X*
G04 File Origin:  Cadence Allegro 16.6-P004*
G04 Origin Date:  Tue Nov 04 00:15:37 2014*
G04 *
G04 Layer:  USER PART NUMBER/SILKSCREEN_BOTTOM*
G04 Layer:  TOLERANCE/SILKSCREEN_BOTTOM*
G04 Layer:  REF DES/SILKSCREEN_BOTTOM*
G04 Layer:  PACKAGE GEOMETRY/ASSEMBLY_BOTTOM*
G04 Layer:  PACKAGE GEOMETRY/SILKSCREEN_BOTTOM*
G04 Layer:  DEVICE TYPE/SILKSCREEN_BOTTOM*
G04 Layer:  COMPONENT VALUE/SILKSCREEN_BOTTOM*
G04 Layer:  BOARD GEOMETRY/OUTLINE*
G04 Layer:  BOARD GEOMETRY/SILKSCREEN_BOTTOM*
G04 *
G04 Offset:    (0.000 0.000)*
G04 Mirror:    No*
G04 Mode:      Positive*
G04 Rotation:  0*
G04 FullContactRelief:  No*
G04 UndefLineWidth:     6.000*
G04 ================== end FILE IDENTIFICATION RECORD ====================*
%FSLAX25Y25*MOIN*%
%IR0*IPPOS*OFA0.00000B0.00000*MIA0B0*SFA1.00000B1.00000*%
%ADD10C,.002*%
%ADD11C,.003*%
%ADD12C,.005*%
%ADD13C,.006*%
G75*
%LPD*%
G75*
G54D10*
G01X27290Y11200D02*
Y6210D01*
X22710D01*
Y11200D01*
G01Y13310D02*
Y18300D01*
X27290D01*
Y13310D01*
G01Y30500D02*
Y25510D01*
X22710D01*
Y30500D01*
G01Y32610D02*
Y37600D01*
X27290D01*
Y32610D01*
G01X49500Y29710D02*
X44510D01*
Y34290D01*
X49500D01*
G01X51610D02*
X56600D01*
Y29710D01*
X51610D01*
G01X49600Y42510D02*
X44610D01*
Y47090D01*
X49600D01*
G01X51710D02*
X56700D01*
Y42510D01*
X51710D01*
G01X48190Y98490D02*
Y93500D01*
X43610D01*
Y98490D01*
G01Y100600D02*
Y105590D01*
X48190D01*
Y100600D01*
G01X67890Y98190D02*
Y93200D01*
X63310D01*
Y98190D01*
G01Y100300D02*
Y105290D01*
X67890D01*
Y100300D01*
G01X65190Y239890D02*
Y234900D01*
X60610D01*
Y239890D01*
G01Y242000D02*
Y246990D01*
X65190D01*
Y242000D01*
G01X71290Y239890D02*
Y234900D01*
X66710D01*
Y239890D01*
G01Y242000D02*
Y246990D01*
X71290D01*
Y242000D01*
G01X99390Y20890D02*
Y15900D01*
X94810D01*
Y20890D01*
G01Y23000D02*
Y27990D01*
X99390D01*
Y23000D01*
G01Y35800D02*
Y30810D01*
X94810D01*
Y35800D01*
G01Y37910D02*
Y42900D01*
X99390D01*
Y37910D01*
G01X104590Y20890D02*
Y15900D01*
X100010D01*
Y20890D01*
G01Y23000D02*
Y27990D01*
X104590D01*
Y23000D01*
G01X104790Y35800D02*
Y30810D01*
X100210D01*
Y35800D01*
G01Y37910D02*
Y42900D01*
X104790D01*
Y37910D01*
G01X116890Y20890D02*
Y15900D01*
X112310D01*
Y20890D01*
G01Y23000D02*
Y27990D01*
X116890D01*
Y23000D01*
G01Y35700D02*
Y30710D01*
X112310D01*
Y35700D01*
G01Y37810D02*
Y42800D01*
X116890D01*
Y37810D01*
G01X122090Y20890D02*
Y15900D01*
X117510D01*
Y20890D01*
G01Y23000D02*
Y27990D01*
X122090D01*
Y23000D01*
G01X121990Y35700D02*
Y30710D01*
X117410D01*
Y35700D01*
G01Y37810D02*
Y42800D01*
X121990D01*
Y37810D01*
G01X142500Y4410D02*
X137510D01*
Y8990D01*
X142500D01*
G01X144610D02*
X149600D01*
Y4410D01*
X144610D01*
G01X144500Y32690D02*
X149490D01*
Y28110D01*
X144500D01*
G01X142390D02*
X137400D01*
Y32690D01*
X142390D01*
G54D11*
G01X27600Y20800D02*
Y23100D01*
G01X28300Y20800D02*
Y23100D01*
G01X63600Y30900D02*
Y33200D01*
G01X62900Y30900D02*
Y33200D01*
G01X60500Y121400D02*
Y123700D01*
G01X59800Y121400D02*
Y123700D01*
G01X64600Y43700D02*
Y46000D01*
G01X63900Y43700D02*
Y46000D01*
G01X71600Y123600D02*
Y121300D01*
G01X72300Y123600D02*
Y121300D01*
G01X72200Y136800D02*
Y139100D01*
G01X71500Y136800D02*
Y139100D01*
G01X82000Y29600D02*
Y27300D01*
G01X82700Y29600D02*
Y27300D01*
G01X97100Y185400D02*
Y187700D01*
G01X96400Y185400D02*
Y187700D01*
G01X105100Y265900D02*
X107400D01*
G01X105100Y265200D02*
X107400D01*
G54D12*
G01X71900Y130200D02*
X70400D01*
G01X68000D02*
X66500D01*
G01X70200Y132900D02*
Y127500D01*
G01X68200Y132900D02*
Y127500D01*
G01X82300Y35900D02*
X80800D01*
G01X78400D02*
X76900D01*
G01X80600Y38600D02*
Y33200D01*
G01X78600Y38600D02*
Y33200D01*
G01X94000Y193900D02*
X95500D01*
G01X97900D02*
X99400D01*
G01X95700Y191200D02*
Y196600D01*
G01X97700Y191200D02*
Y196600D01*
G01X95900Y261800D02*
X101300D01*
G01X98600Y261600D02*
Y260100D01*
G01X95900Y263800D02*
X101300D01*
G01X98600Y265500D02*
Y264000D01*
G01X142700Y11000D02*
Y16400D01*
G01X144700Y11000D02*
Y16400D01*
G01X141000Y13700D02*
X142500D01*
G01X144900D02*
X146400D01*
G01X144700Y26100D02*
Y20700D01*
G01X142700Y26100D02*
Y20700D01*
G01X146400Y23400D02*
X144900D01*
G01X142500D02*
X141000D01*
G54D13*
G01X0Y0D02*
X170000D01*
Y333071D01*
X0D01*
Y0D01*
G01X22500Y19400D02*
X33500D01*
Y24400D01*
X22500D01*
Y19400D01*
G01X57800Y29500D02*
X68800D01*
Y34500D01*
X57800D01*
Y29500D01*
G01X58800Y42300D02*
X69800D01*
Y47300D01*
X58800D01*
Y42300D01*
G01X54700Y120000D02*
X65700D01*
Y125000D01*
X54700D01*
Y120000D01*
G01X78400Y126700D02*
Y134200D01*
X59900D01*
Y126200D01*
X78400D01*
Y126700D01*
G01X88800Y32400D02*
Y39900D01*
X70300D01*
Y31900D01*
X88800D01*
Y32400D01*
G01X77400Y125000D02*
X66400D01*
Y120000D01*
X77400D01*
Y125000D01*
G01X66400Y135400D02*
X77400D01*
Y140400D01*
X66400D01*
Y135400D01*
G01X87800Y31000D02*
X76800D01*
Y26000D01*
X87800D01*
Y31000D01*
G01X91300Y184000D02*
X102300D01*
Y189000D01*
X91300D01*
Y184000D01*
G01X87500Y197400D02*
Y189900D01*
X106000D01*
Y197900D01*
X87500D01*
Y197400D01*
G01X102100Y272000D02*
X94600D01*
Y253500D01*
X102600D01*
Y272000D01*
X102100D01*
G01X103700Y271000D02*
Y260000D01*
X108700D01*
Y271000D01*
X103700D01*
G01X134500Y17200D02*
Y9700D01*
X153000D01*
Y17700D01*
X134500D01*
Y17200D01*
G01X152900Y19900D02*
Y27400D01*
X134400D01*
Y19400D01*
X152900D01*
Y19900D01*
G01X21900Y17467D02*
X16900D01*
Y15883D01*
X17150Y15377D01*
X17483Y15060D01*
X18150Y14933D01*
X18817Y15060D01*
X19233Y15440D01*
X19483Y15883D01*
Y17467D01*
G01Y15883D02*
X21900Y14933D01*
G01Y11100D02*
X16900D01*
X17900Y11860D01*
G01X21900D02*
Y10340D01*
G01X17733Y7203D02*
X17233Y6823D01*
X16983Y6380D01*
X16900Y5873D01*
X17067Y5240D01*
X17483Y4797D01*
X17983Y4670D01*
X18484Y4733D01*
X18900Y4987D01*
X19733Y6253D01*
X20317Y6823D01*
X21150Y7203D01*
X21900Y7330D01*
Y4670D01*
G01Y36767D02*
X16900D01*
Y35183D01*
X17150Y34677D01*
X17483Y34360D01*
X18150Y34233D01*
X18817Y34360D01*
X19233Y34740D01*
X19483Y35183D01*
Y36767D01*
G01Y35183D02*
X21900Y34233D01*
G01Y30400D02*
X16900D01*
X17900Y31160D01*
G01X21900D02*
Y29640D01*
G01Y24540D02*
X16900D01*
X20483Y26883D01*
Y23717D01*
G01X23100Y15600D02*
Y8910D01*
X26900D01*
Y15600D01*
X23100D01*
G01X22240Y19140D02*
Y24650D01*
X33750D01*
Y19140D01*
X22240D01*
G01X40467Y29700D02*
Y34700D01*
X38883D01*
X38377Y34450D01*
X38060Y34117D01*
X37933Y33450D01*
X38060Y32783D01*
X38440Y32367D01*
X38883Y32117D01*
X40467D01*
G01X38883D02*
X37933Y29700D01*
G01X35303Y33867D02*
X34923Y34367D01*
X34480Y34617D01*
X33973Y34700D01*
X33340Y34533D01*
X32897Y34117D01*
X32770Y33617D01*
X32833Y33117D01*
X33087Y32700D01*
X34353Y31867D01*
X34923Y31283D01*
X35303Y30450D01*
X35430Y29700D01*
X32770D01*
G01X30203Y33867D02*
X29823Y34367D01*
X29380Y34617D01*
X28873Y34700D01*
X28240Y34533D01*
X27797Y34117D01*
X27670Y33617D01*
X27733Y33117D01*
X27987Y32700D01*
X29253Y31867D01*
X29823Y31283D01*
X30203Y30450D01*
X30330Y29700D01*
X27670D01*
G01X23100Y34900D02*
Y28210D01*
X26900D01*
Y34900D01*
X23100D01*
G01X43967Y42400D02*
Y47400D01*
X42383D01*
X41877Y47150D01*
X41560Y46817D01*
X41433Y46150D01*
X41560Y45483D01*
X41940Y45067D01*
X42383Y44817D01*
X43967D01*
G01X42383D02*
X41433Y42400D01*
G01X37600D02*
Y47400D01*
X38360Y46400D01*
G01Y42400D02*
X36840D01*
G01X33577Y42983D02*
X33133Y42567D01*
X32627Y42400D01*
X32120Y42567D01*
X31677Y43066D01*
X31360Y43817D01*
X31233Y44567D01*
Y45483D01*
X31360Y46233D01*
X31677Y46900D01*
X32057Y47233D01*
X32500Y47400D01*
X33007Y47233D01*
X33387Y46900D01*
X33640Y46400D01*
X33767Y45733D01*
X33640Y45150D01*
X33323Y44567D01*
X32943Y44233D01*
X32500Y44150D01*
X31993Y44317D01*
X31613Y44733D01*
X31233Y45483D01*
G01X39507Y23583D02*
X39887Y23833D01*
X40330Y24000D01*
X40837D01*
X41407Y23750D01*
X41850Y23333D01*
X42167Y22833D01*
X42420Y22000D01*
X42483Y21250D01*
X42357Y20500D01*
X42167Y20000D01*
X41787Y19500D01*
X41343Y19167D01*
X40900Y19000D01*
X40457D01*
X40013Y19167D01*
X39633Y19417D01*
X39317Y19750D01*
G01X35040Y19000D02*
Y24000D01*
X37383Y20417D01*
X34217D01*
G01X47107Y124583D02*
X47487Y124833D01*
X47930Y125000D01*
X48437D01*
X49007Y124750D01*
X49450Y124333D01*
X49767Y123833D01*
X50020Y123000D01*
X50083Y122250D01*
X49957Y121500D01*
X49767Y121000D01*
X49387Y120500D01*
X48943Y120167D01*
X48500Y120000D01*
X48057D01*
X47613Y120167D01*
X47233Y120417D01*
X46917Y120750D01*
G01X43400Y120000D02*
Y125000D01*
X44160Y124000D01*
G01Y120000D02*
X42640D01*
G01X38300Y125000D02*
X38807Y124833D01*
X39187Y124417D01*
X39440Y123917D01*
X39630Y123250D01*
X39693Y122500D01*
X39630Y121750D01*
X39440Y121083D01*
X39187Y120583D01*
X38807Y120167D01*
X38300Y120000D01*
X37793Y120167D01*
X37413Y120583D01*
X37160Y121083D01*
X36970Y121750D01*
X36907Y122500D01*
X36970Y123250D01*
X37160Y123917D01*
X37413Y124417D01*
X37793Y124833D01*
X38300Y125000D01*
G01X53900Y33900D02*
X47210D01*
Y30100D01*
X53900D01*
Y33900D01*
G01X54000Y46700D02*
X47310D01*
Y42900D01*
X54000D01*
Y46700D01*
G01X49000Y94333D02*
X54000D01*
Y95917D01*
X53750Y96423D01*
X53417Y96740D01*
X52750Y96867D01*
X52083Y96740D01*
X51667Y96360D01*
X51417Y95917D01*
Y94333D01*
G01Y95917D02*
X49000Y96867D01*
G01X49750Y99307D02*
X49333Y99687D01*
X49083Y100130D01*
X49000Y100700D01*
X49167Y101270D01*
X49500Y101713D01*
X50083Y102030D01*
X50750Y102093D01*
X51417Y101967D01*
X51833Y101650D01*
X52167Y101207D01*
X52250Y100763D01*
X52167Y100320D01*
X51833Y99750D01*
X54000Y99940D01*
Y101650D01*
G01X49000Y105673D02*
X50083Y105800D01*
X51000Y105990D01*
X51833Y106243D01*
X52750Y106560D01*
X54000Y107067D01*
Y104533D01*
G01X47800Y96200D02*
Y102890D01*
X44000D01*
Y96200D01*
X47800D01*
G01X53307Y132383D02*
X53687Y132633D01*
X54130Y132800D01*
X54637D01*
X55207Y132550D01*
X55650Y132133D01*
X55967Y131633D01*
X56220Y130800D01*
X56283Y130050D01*
X56157Y129300D01*
X55967Y128800D01*
X55587Y128300D01*
X55143Y127967D01*
X54700Y127800D01*
X54257D01*
X53813Y127967D01*
X53433Y128217D01*
X53117Y128550D01*
G01X49727Y127800D02*
X49600Y128883D01*
X49410Y129800D01*
X49157Y130633D01*
X48840Y131550D01*
X48333Y132800D01*
X50867D01*
G01X58207Y140583D02*
X58587Y140833D01*
X59030Y141000D01*
X59537D01*
X60107Y140750D01*
X60550Y140333D01*
X60867Y139833D01*
X61120Y139000D01*
X61183Y138250D01*
X61057Y137500D01*
X60867Y137000D01*
X60487Y136500D01*
X60043Y136167D01*
X59600Y136000D01*
X59157D01*
X58713Y136167D01*
X58333Y136417D01*
X58017Y136750D01*
G01X55577Y136583D02*
X55133Y136167D01*
X54627Y136000D01*
X54120Y136167D01*
X53677Y136666D01*
X53360Y137417D01*
X53233Y138167D01*
Y139083D01*
X53360Y139833D01*
X53677Y140500D01*
X54057Y140833D01*
X54500Y141000D01*
X55007Y140833D01*
X55387Y140500D01*
X55640Y140000D01*
X55767Y139333D01*
X55640Y138750D01*
X55323Y138167D01*
X54943Y137833D01*
X54500Y137750D01*
X53993Y137917D01*
X53613Y138333D01*
X53233Y139083D01*
G01X48100Y234633D02*
X53100D01*
Y236217D01*
X52850Y236723D01*
X52517Y237040D01*
X51850Y237167D01*
X51183Y237040D01*
X50767Y236660D01*
X50517Y236217D01*
Y234633D01*
G01Y236217D02*
X48100Y237167D01*
G01Y241760D02*
X53100D01*
X49517Y239417D01*
Y242583D01*
G01X48100Y246100D02*
X48183Y246543D01*
X48433Y247050D01*
X48850Y247367D01*
X49433Y247493D01*
X50017Y247367D01*
X50517Y246987D01*
X50767Y246417D01*
Y245783D01*
X50933Y245403D01*
X51350Y245087D01*
X51933Y244960D01*
X52517Y245150D01*
X52933Y245593D01*
X53100Y246100D01*
X52933Y246607D01*
X52517Y247050D01*
X51933Y247240D01*
X51350Y247113D01*
X50933Y246797D01*
X50767Y246417D01*
Y245783D01*
X50517Y245213D01*
X50017Y244833D01*
X49433Y244707D01*
X48850Y244833D01*
X48433Y245150D01*
X48183Y245657D01*
X48100Y246100D01*
G01X54200Y234733D02*
X59200D01*
Y236317D01*
X58950Y236823D01*
X58617Y237140D01*
X57950Y237267D01*
X57283Y237140D01*
X56867Y236760D01*
X56617Y236317D01*
Y234733D01*
G01Y236317D02*
X54200Y237267D01*
G01Y241860D02*
X59200D01*
X55617Y239517D01*
Y242683D01*
G01X56283Y244997D02*
X56867Y245440D01*
X57200Y245820D01*
X57367Y246327D01*
X57200Y246770D01*
X56867Y247087D01*
X56367Y247340D01*
X55783Y247403D01*
X55283Y247340D01*
X54783Y247087D01*
X54367Y246707D01*
X54200Y246263D01*
X54367Y245757D01*
X54866Y245313D01*
X55617Y245060D01*
X56450Y244997D01*
X57533Y245123D01*
X58117Y245313D01*
X58700Y245630D01*
X59117Y246073D01*
X59200Y246517D01*
X59033Y246960D01*
X58617Y247277D01*
G01X66807Y26983D02*
X67187Y27233D01*
X67630Y27400D01*
X68137D01*
X68707Y27150D01*
X69150Y26733D01*
X69467Y26233D01*
X69720Y25400D01*
X69783Y24650D01*
X69657Y23900D01*
X69467Y23400D01*
X69087Y22900D01*
X68643Y22567D01*
X68200Y22400D01*
X67757D01*
X67313Y22567D01*
X66933Y22817D01*
X66617Y23150D01*
G01X63100Y22400D02*
Y27400D01*
X63860Y26400D01*
G01Y22400D02*
X62340D01*
G01X57240D02*
Y27400D01*
X59583Y23817D01*
X56417D01*
G01X57540Y29240D02*
Y34750D01*
X69050D01*
Y29240D01*
X57540D01*
G01X58540Y42040D02*
Y47550D01*
X70050D01*
Y42040D01*
X58540D01*
G01X68107Y53483D02*
X68487Y53733D01*
X68930Y53900D01*
X69437D01*
X70007Y53650D01*
X70450Y53233D01*
X70767Y52733D01*
X71020Y51900D01*
X71083Y51150D01*
X70957Y50400D01*
X70767Y49900D01*
X70387Y49400D01*
X69943Y49067D01*
X69500Y48900D01*
X69057D01*
X68613Y49067D01*
X68233Y49317D01*
X67917Y49650D01*
G01X64400Y48900D02*
Y53900D01*
X65160Y52900D01*
G01Y48900D02*
X63640D01*
G01X60503Y53067D02*
X60123Y53567D01*
X59680Y53817D01*
X59173Y53900D01*
X58540Y53733D01*
X58097Y53317D01*
X57970Y52817D01*
X58033Y52316D01*
X58287Y51900D01*
X59553Y51067D01*
X60123Y50483D01*
X60503Y49650D01*
X60630Y48900D01*
X57970D01*
G01X54440Y119740D02*
Y125250D01*
X65950D01*
Y119740D01*
X54440D01*
G01X64800Y237600D02*
Y244290D01*
X61000D01*
Y237600D01*
X64800D01*
G01X83407Y23883D02*
X83787Y24133D01*
X84230Y24300D01*
X84737D01*
X85307Y24050D01*
X85750Y23633D01*
X86067Y23133D01*
X86320Y22300D01*
X86383Y21550D01*
X86257Y20800D01*
X86067Y20300D01*
X85687Y19800D01*
X85243Y19467D01*
X84800Y19300D01*
X84357D01*
X83913Y19467D01*
X83533Y19717D01*
X83217Y20050D01*
G01X80903Y23467D02*
X80523Y23967D01*
X80080Y24217D01*
X79573Y24300D01*
X78940Y24133D01*
X78497Y23717D01*
X78370Y23217D01*
X78433Y22716D01*
X78687Y22300D01*
X79953Y21467D01*
X80523Y20883D01*
X80903Y20050D01*
X81030Y19300D01*
X78370D01*
G01X75993Y20300D02*
X75613Y19717D01*
X75107Y19383D01*
X74537Y19300D01*
X74030Y19383D01*
X73523Y19800D01*
X73207Y20300D01*
X73143Y20800D01*
X73270Y21383D01*
X73713Y21800D01*
X74157Y21967D01*
X74727D01*
G01X74157D02*
X73777Y22217D01*
X73460Y22633D01*
X73333Y23133D01*
X73460Y23633D01*
X73777Y24050D01*
X74347Y24300D01*
X74917Y24217D01*
X75487Y23883D01*
G01X82207Y46083D02*
X82587Y46333D01*
X83030Y46500D01*
X83537D01*
X84107Y46250D01*
X84550Y45833D01*
X84867Y45333D01*
X85120Y44500D01*
X85183Y43750D01*
X85057Y43000D01*
X84867Y42500D01*
X84487Y42000D01*
X84043Y41667D01*
X83600Y41500D01*
X83157D01*
X82713Y41667D01*
X82333Y41917D01*
X82017Y42250D01*
G01X79703Y45667D02*
X79323Y46167D01*
X78880Y46417D01*
X78373Y46500D01*
X77740Y46333D01*
X77297Y45917D01*
X77170Y45417D01*
X77233Y44917D01*
X77487Y44500D01*
X78753Y43667D01*
X79323Y43083D01*
X79703Y42250D01*
X79830Y41500D01*
X77170D01*
G01X72640D02*
Y46500D01*
X74983Y42917D01*
X71817D01*
G01X68700Y94033D02*
X73700D01*
Y95617D01*
X73450Y96123D01*
X73117Y96440D01*
X72450Y96567D01*
X71783Y96440D01*
X71367Y96060D01*
X71117Y95617D01*
Y94033D01*
G01Y95617D02*
X68700Y96567D01*
G01X69450Y99007D02*
X69033Y99387D01*
X68783Y99830D01*
X68700Y100400D01*
X68867Y100970D01*
X69200Y101413D01*
X69783Y101730D01*
X70450Y101793D01*
X71117Y101667D01*
X71533Y101350D01*
X71867Y100907D01*
X71950Y100463D01*
X71867Y100020D01*
X71533Y99450D01*
X73700Y99640D01*
Y101350D01*
G01X70783Y104297D02*
X71367Y104740D01*
X71700Y105120D01*
X71867Y105627D01*
X71700Y106070D01*
X71367Y106387D01*
X70867Y106640D01*
X70283Y106703D01*
X69783Y106640D01*
X69283Y106387D01*
X68867Y106007D01*
X68700Y105563D01*
X68867Y105057D01*
X69366Y104613D01*
X70117Y104360D01*
X70950Y104297D01*
X72033Y104423D01*
X72617Y104613D01*
X73200Y104930D01*
X73617Y105373D01*
X73700Y105817D01*
X73533Y106260D01*
X73117Y106577D01*
G01X67500Y95900D02*
Y102590D01*
X63700D01*
Y95900D01*
X67500D01*
G01X77660Y125260D02*
Y119750D01*
X66150D01*
Y125260D01*
X77660D01*
G01X66140Y135140D02*
Y140650D01*
X77650D01*
Y135140D01*
X66140D01*
G01X70900Y237600D02*
Y244290D01*
X67100D01*
Y237600D01*
X70900D01*
G01X88060Y31260D02*
Y25750D01*
X76550D01*
Y31260D01*
X88060D01*
G01X83007Y124183D02*
X83387Y124433D01*
X83830Y124600D01*
X84337D01*
X84907Y124350D01*
X85350Y123933D01*
X85667Y123433D01*
X85920Y122600D01*
X85983Y121850D01*
X85857Y121100D01*
X85667Y120600D01*
X85287Y120100D01*
X84843Y119767D01*
X84400Y119600D01*
X83957D01*
X83513Y119767D01*
X83133Y120017D01*
X82817Y120350D01*
G01X80503Y121683D02*
X80060Y122267D01*
X79680Y122600D01*
X79173Y122767D01*
X78730Y122600D01*
X78413Y122267D01*
X78160Y121767D01*
X78097Y121183D01*
X78160Y120683D01*
X78413Y120183D01*
X78793Y119767D01*
X79237Y119600D01*
X79743Y119767D01*
X80187Y120267D01*
X80440Y121017D01*
X80503Y121850D01*
X80377Y122933D01*
X80187Y123517D01*
X79870Y124100D01*
X79427Y124517D01*
X78983Y124600D01*
X78540Y124433D01*
X78223Y124017D01*
G01X82717Y265207D02*
X82467Y265587D01*
X82300Y266030D01*
Y266537D01*
X82550Y267107D01*
X82967Y267550D01*
X83467Y267867D01*
X84300Y268120D01*
X85050Y268183D01*
X85800Y268057D01*
X86300Y267867D01*
X86800Y267487D01*
X87133Y267043D01*
X87300Y266600D01*
Y266157D01*
X87133Y265713D01*
X86883Y265333D01*
X86550Y265017D01*
G01X83133Y262703D02*
X82633Y262323D01*
X82383Y261880D01*
X82300Y261373D01*
X82467Y260740D01*
X82883Y260297D01*
X83383Y260170D01*
X83884Y260233D01*
X84300Y260487D01*
X85133Y261753D01*
X85717Y262323D01*
X86550Y262703D01*
X87300Y262830D01*
Y260170D01*
G01X83133Y257603D02*
X82633Y257223D01*
X82383Y256780D01*
X82300Y256273D01*
X82467Y255640D01*
X82883Y255197D01*
X83383Y255070D01*
X83884Y255133D01*
X84300Y255387D01*
X85133Y256653D01*
X85717Y257223D01*
X86550Y257603D01*
X87300Y257730D01*
Y255070D01*
G01X99300Y14367D02*
X94300D01*
Y12783D01*
X94550Y12277D01*
X94883Y11960D01*
X95550Y11833D01*
X96217Y11960D01*
X96633Y12340D01*
X96883Y12783D01*
Y14367D01*
G01Y12783D02*
X99300Y11833D01*
G01X98300Y9393D02*
X98883Y9013D01*
X99217Y8507D01*
X99300Y7937D01*
X99217Y7430D01*
X98800Y6923D01*
X98300Y6607D01*
X97800Y6543D01*
X97217Y6670D01*
X96800Y7113D01*
X96633Y7557D01*
Y8127D01*
G01Y7557D02*
X96383Y7177D01*
X95967Y6860D01*
X95467Y6733D01*
X94967Y6860D01*
X94550Y7177D01*
X94300Y7747D01*
X94383Y8317D01*
X94717Y8887D01*
G01X98717Y3977D02*
X99133Y3533D01*
X99300Y3027D01*
X99133Y2520D01*
X98634Y2077D01*
X97883Y1760D01*
X97133Y1633D01*
X96217D01*
X95467Y1760D01*
X94800Y2077D01*
X94467Y2457D01*
X94300Y2900D01*
X94467Y3407D01*
X94800Y3787D01*
X95300Y4040D01*
X95967Y4167D01*
X96550Y4040D01*
X97133Y3723D01*
X97467Y3343D01*
X97550Y2900D01*
X97383Y2393D01*
X96967Y2013D01*
X96217Y1633D01*
G01X99600Y56867D02*
X94600D01*
Y55283D01*
X94850Y54777D01*
X95183Y54460D01*
X95850Y54333D01*
X96517Y54460D01*
X96933Y54840D01*
X97183Y55283D01*
Y56867D01*
G01Y55283D02*
X99600Y54333D01*
G01X98600Y51893D02*
X99183Y51513D01*
X99517Y51007D01*
X99600Y50437D01*
X99517Y49930D01*
X99100Y49423D01*
X98600Y49107D01*
X98100Y49043D01*
X97517Y49170D01*
X97100Y49613D01*
X96933Y50057D01*
Y50627D01*
G01Y50057D02*
X96683Y49677D01*
X96267Y49360D01*
X95767Y49233D01*
X95267Y49360D01*
X94850Y49677D01*
X94600Y50247D01*
X94683Y50817D01*
X95017Y51387D01*
G01X99600Y45527D02*
X98517Y45400D01*
X97600Y45210D01*
X96767Y44957D01*
X95850Y44640D01*
X94600Y44133D01*
Y46667D01*
G01X91040Y183740D02*
Y189250D01*
X102550D01*
Y183740D01*
X91040D01*
G01X100907Y206583D02*
X101287Y206833D01*
X101730Y207000D01*
X102237D01*
X102807Y206750D01*
X103250Y206333D01*
X103567Y205833D01*
X103820Y205000D01*
X103883Y204250D01*
X103757Y203500D01*
X103567Y203000D01*
X103187Y202500D01*
X102743Y202167D01*
X102300Y202000D01*
X101857D01*
X101413Y202167D01*
X101033Y202417D01*
X100717Y202750D01*
G01X98403Y206167D02*
X98023Y206667D01*
X97580Y206917D01*
X97073Y207000D01*
X96440Y206833D01*
X95997Y206417D01*
X95870Y205917D01*
X95933Y205416D01*
X96187Y205000D01*
X97453Y204167D01*
X98023Y203583D01*
X98403Y202750D01*
X98530Y202000D01*
X95870D01*
G01X93177Y202583D02*
X92733Y202167D01*
X92227Y202000D01*
X91720Y202167D01*
X91277Y202666D01*
X90960Y203417D01*
X90833Y204167D01*
Y205083D01*
X90960Y205833D01*
X91277Y206500D01*
X91657Y206833D01*
X92100Y207000D01*
X92607Y206833D01*
X92987Y206500D01*
X93240Y206000D01*
X93367Y205333D01*
X93240Y204750D01*
X92923Y204167D01*
X92543Y203833D01*
X92100Y203750D01*
X91593Y203917D01*
X91213Y204333D01*
X90833Y205083D01*
G01X88617Y264707D02*
X88367Y265087D01*
X88200Y265530D01*
Y266037D01*
X88450Y266607D01*
X88867Y267050D01*
X89367Y267367D01*
X90200Y267620D01*
X90950Y267683D01*
X91700Y267557D01*
X92200Y267367D01*
X92700Y266987D01*
X93033Y266543D01*
X93200Y266100D01*
Y265657D01*
X93033Y265213D01*
X92783Y264833D01*
X92450Y264517D01*
G01X89033Y262203D02*
X88533Y261823D01*
X88283Y261380D01*
X88200Y260873D01*
X88367Y260240D01*
X88783Y259797D01*
X89283Y259670D01*
X89784Y259733D01*
X90200Y259987D01*
X91033Y261253D01*
X91617Y261823D01*
X92450Y262203D01*
X93200Y262330D01*
Y259670D01*
G01Y255900D02*
X88200D01*
X89200Y256660D01*
G01X93200D02*
Y255140D01*
G01X105300Y14467D02*
X100300D01*
Y12883D01*
X100550Y12377D01*
X100883Y12060D01*
X101550Y11933D01*
X102217Y12060D01*
X102633Y12440D01*
X102883Y12883D01*
Y14467D01*
G01Y12883D02*
X105300Y11933D01*
G01Y7340D02*
X100300D01*
X103883Y9683D01*
Y6517D01*
G01X100300Y3000D02*
X100467Y3507D01*
X100883Y3887D01*
X101383Y4140D01*
X102050Y4330D01*
X102800Y4393D01*
X103550Y4330D01*
X104217Y4140D01*
X104717Y3887D01*
X105133Y3507D01*
X105300Y3000D01*
X105133Y2493D01*
X104717Y2113D01*
X104217Y1860D01*
X103550Y1670D01*
X102800Y1607D01*
X102050Y1670D01*
X101383Y1860D01*
X100883Y2113D01*
X100467Y2493D01*
X100300Y3000D01*
G01X104200Y18600D02*
Y25290D01*
X100400D01*
Y18600D01*
X104200D01*
G01X99000D02*
Y25290D01*
X95200D01*
Y18600D01*
X99000D01*
G01X95200Y40200D02*
Y33510D01*
X99000D01*
Y40200D01*
X95200D01*
G01X100600D02*
Y33510D01*
X104400D01*
Y40200D01*
X100600D01*
G01X105500Y56867D02*
X100500D01*
Y55283D01*
X100750Y54777D01*
X101083Y54460D01*
X101750Y54333D01*
X102417Y54460D01*
X102833Y54840D01*
X103083Y55283D01*
Y56867D01*
G01Y55283D02*
X105500Y54333D01*
G01X104500Y51893D02*
X105083Y51513D01*
X105417Y51007D01*
X105500Y50437D01*
X105417Y49930D01*
X105000Y49423D01*
X104500Y49107D01*
X104000Y49043D01*
X103417Y49170D01*
X103000Y49613D01*
X102833Y50057D01*
Y50627D01*
G01Y50057D02*
X102583Y49677D01*
X102167Y49360D01*
X101667Y49233D01*
X101167Y49360D01*
X100750Y49677D01*
X100500Y50247D01*
X100583Y50817D01*
X100917Y51387D01*
G01X105500Y45400D02*
X105417Y44957D01*
X105167Y44450D01*
X104750Y44133D01*
X104167Y44007D01*
X103583Y44133D01*
X103083Y44513D01*
X102833Y45083D01*
Y45717D01*
X102667Y46097D01*
X102250Y46413D01*
X101667Y46540D01*
X101083Y46350D01*
X100667Y45907D01*
X100500Y45400D01*
X100667Y44893D01*
X101083Y44450D01*
X101667Y44260D01*
X102250Y44387D01*
X102667Y44703D01*
X102833Y45083D01*
Y45717D01*
X103083Y46287D01*
X103583Y46667D01*
X104167Y46793D01*
X104750Y46667D01*
X105167Y46350D01*
X105417Y45843D01*
X105500Y45400D01*
G01X113907Y188283D02*
X114287Y188533D01*
X114730Y188700D01*
X115237D01*
X115807Y188450D01*
X116250Y188033D01*
X116567Y187533D01*
X116820Y186700D01*
X116883Y185950D01*
X116757Y185200D01*
X116567Y184700D01*
X116187Y184200D01*
X115743Y183867D01*
X115300Y183700D01*
X114857D01*
X114413Y183867D01*
X114033Y184117D01*
X113717Y184450D01*
G01X111403Y187867D02*
X111023Y188367D01*
X110580Y188617D01*
X110073Y188700D01*
X109440Y188533D01*
X108997Y188117D01*
X108870Y187617D01*
X108933Y187116D01*
X109187Y186700D01*
X110453Y185867D01*
X111023Y185283D01*
X111403Y184450D01*
X111530Y183700D01*
X108870D01*
G01X105100D02*
X104657Y183783D01*
X104150Y184033D01*
X103833Y184450D01*
X103707Y185033D01*
X103833Y185617D01*
X104213Y186117D01*
X104783Y186367D01*
X105417D01*
X105797Y186533D01*
X106113Y186950D01*
X106240Y187533D01*
X106050Y188117D01*
X105607Y188533D01*
X105100Y188700D01*
X104593Y188533D01*
X104150Y188117D01*
X103960Y187533D01*
X104087Y186950D01*
X104403Y186533D01*
X104783Y186367D01*
X105417D01*
X105987Y186117D01*
X106367Y185617D01*
X106493Y185033D01*
X106367Y184450D01*
X106050Y184033D01*
X105543Y183783D01*
X105100Y183700D01*
G01X103440Y271260D02*
X108950D01*
Y259750D01*
X103440D01*
Y271260D01*
G01X116900Y14767D02*
X111900D01*
Y13183D01*
X112150Y12677D01*
X112483Y12360D01*
X113150Y12233D01*
X113817Y12360D01*
X114233Y12740D01*
X114483Y13183D01*
Y14767D01*
G01Y13183D02*
X116900Y12233D01*
G01Y7640D02*
X111900D01*
X115483Y9983D01*
Y6817D01*
G01X116900Y2540D02*
X111900D01*
X115483Y4883D01*
Y1717D01*
G01X116500Y18600D02*
Y25290D01*
X112700D01*
Y18600D01*
X116500D01*
G01X112700Y40100D02*
Y33410D01*
X116500D01*
Y40100D01*
X112700D01*
G01X116900Y56767D02*
X111900D01*
Y55183D01*
X112150Y54677D01*
X112483Y54360D01*
X113150Y54233D01*
X113817Y54360D01*
X114233Y54740D01*
X114483Y55183D01*
Y56767D01*
G01Y55183D02*
X116900Y54233D01*
G01Y49640D02*
X111900D01*
X115483Y51983D01*
Y48817D01*
G01X112733Y46503D02*
X112233Y46123D01*
X111983Y45680D01*
X111900Y45173D01*
X112067Y44540D01*
X112483Y44097D01*
X112983Y43970D01*
X113484Y44033D01*
X113900Y44287D01*
X114733Y45553D01*
X115317Y46123D01*
X116150Y46503D01*
X116900Y46630D01*
Y43970D01*
G01X122600Y14767D02*
X117600D01*
Y13183D01*
X117850Y12677D01*
X118183Y12360D01*
X118850Y12233D01*
X119517Y12360D01*
X119933Y12740D01*
X120183Y13183D01*
Y14767D01*
G01Y13183D02*
X122600Y12233D01*
G01Y7640D02*
X117600D01*
X121183Y9983D01*
Y6817D01*
G01X121600Y4693D02*
X122183Y4313D01*
X122517Y3807D01*
X122600Y3237D01*
X122517Y2730D01*
X122100Y2223D01*
X121600Y1907D01*
X121100Y1843D01*
X120517Y1970D01*
X120100Y2413D01*
X119933Y2857D01*
Y3427D01*
G01Y2857D02*
X119683Y2477D01*
X119267Y2160D01*
X118767Y2033D01*
X118267Y2160D01*
X117850Y2477D01*
X117600Y3047D01*
X117683Y3617D01*
X118017Y4187D01*
G01X121700Y18600D02*
Y25290D01*
X117900D01*
Y18600D01*
X121700D01*
G01X117800Y40100D02*
Y33410D01*
X121600D01*
Y40100D01*
X117800D01*
G01X122300Y56767D02*
X117300D01*
Y55183D01*
X117550Y54677D01*
X117883Y54360D01*
X118550Y54233D01*
X119217Y54360D01*
X119633Y54740D01*
X119883Y55183D01*
Y56767D01*
G01Y55183D02*
X122300Y54233D01*
G01Y49640D02*
X117300D01*
X120883Y51983D01*
Y48817D01*
G01X122300Y45300D02*
X117300D01*
X118300Y46060D01*
G01X122300D02*
Y44540D01*
G01X149767Y34200D02*
Y39200D01*
X148183D01*
X147677Y38950D01*
X147360Y38617D01*
X147233Y37950D01*
X147360Y37283D01*
X147740Y36867D01*
X148183Y36617D01*
X149767D01*
G01X148183D02*
X147233Y34200D01*
G01X143400D02*
Y39200D01*
X144160Y38200D01*
G01Y34200D02*
X142640D01*
G01X138300D02*
X137857Y34283D01*
X137350Y34533D01*
X137033Y34950D01*
X136907Y35533D01*
X137033Y36117D01*
X137413Y36617D01*
X137983Y36867D01*
X138617D01*
X138997Y37033D01*
X139313Y37450D01*
X139440Y38033D01*
X139250Y38617D01*
X138807Y39033D01*
X138300Y39200D01*
X137793Y39033D01*
X137350Y38617D01*
X137160Y38033D01*
X137287Y37450D01*
X137603Y37033D01*
X137983Y36867D01*
X138617D01*
X139187Y36617D01*
X139567Y36117D01*
X139693Y35533D01*
X139567Y34950D01*
X139250Y34533D01*
X138743Y34283D01*
X138300Y34200D01*
G01X146900Y8600D02*
X140210D01*
Y4800D01*
X146900D01*
Y8600D01*
G01X140100Y28500D02*
X146790D01*
Y32300D01*
X140100D01*
Y28500D01*
G01X166767Y4200D02*
Y9200D01*
X165183D01*
X164677Y8950D01*
X164360Y8617D01*
X164233Y7950D01*
X164360Y7283D01*
X164740Y6867D01*
X165183Y6617D01*
X166767D01*
G01X165183D02*
X164233Y4200D01*
G01X161603Y8367D02*
X161223Y8867D01*
X160780Y9117D01*
X160273Y9200D01*
X159640Y9033D01*
X159197Y8617D01*
X159070Y8117D01*
X159133Y7617D01*
X159387Y7200D01*
X160653Y6367D01*
X161223Y5783D01*
X161603Y4950D01*
X161730Y4200D01*
X159070D01*
G01X156503Y6283D02*
X156060Y6867D01*
X155680Y7200D01*
X155173Y7367D01*
X154730Y7200D01*
X154413Y6867D01*
X154160Y6367D01*
X154097Y5783D01*
X154160Y5283D01*
X154413Y4783D01*
X154793Y4367D01*
X155237Y4200D01*
X155743Y4367D01*
X156187Y4866D01*
X156440Y5617D01*
X156503Y6450D01*
X156377Y7533D01*
X156187Y8117D01*
X155870Y8700D01*
X155427Y9117D01*
X154983Y9200D01*
X154540Y9033D01*
X154223Y8617D01*
G01X164707Y19783D02*
X165087Y20033D01*
X165530Y20200D01*
X166037D01*
X166607Y19950D01*
X167050Y19533D01*
X167367Y19033D01*
X167620Y18200D01*
X167683Y17450D01*
X167557Y16700D01*
X167367Y16200D01*
X166987Y15700D01*
X166543Y15367D01*
X166100Y15200D01*
X165657D01*
X165213Y15367D01*
X164833Y15617D01*
X164517Y15950D01*
G01X161000Y15200D02*
Y20200D01*
X161760Y19200D01*
G01Y15200D02*
X160240D01*
G01X157293Y15950D02*
X156913Y15533D01*
X156470Y15283D01*
X155900Y15200D01*
X155330Y15367D01*
X154887Y15700D01*
X154570Y16283D01*
X154507Y16950D01*
X154633Y17617D01*
X154950Y18033D01*
X155393Y18367D01*
X155837Y18450D01*
X156280Y18367D01*
X156850Y18033D01*
X156660Y20200D01*
X154950D01*
G01X164707Y30383D02*
X165087Y30633D01*
X165530Y30800D01*
X166037D01*
X166607Y30550D01*
X167050Y30133D01*
X167367Y29633D01*
X167620Y28800D01*
X167683Y28050D01*
X167557Y27300D01*
X167367Y26800D01*
X166987Y26300D01*
X166543Y25967D01*
X166100Y25800D01*
X165657D01*
X165213Y25967D01*
X164833Y26217D01*
X164517Y26550D01*
G01X161000Y25800D02*
Y30800D01*
X161760Y29800D01*
G01Y25800D02*
X160240D01*
G01X157293Y26800D02*
X156913Y26217D01*
X156407Y25883D01*
X155837Y25800D01*
X155330Y25883D01*
X154823Y26300D01*
X154507Y26800D01*
X154443Y27300D01*
X154570Y27883D01*
X155013Y28300D01*
X155457Y28467D01*
X156027D01*
G01X155457D02*
X155077Y28717D01*
X154760Y29133D01*
X154633Y29633D01*
X154760Y30133D01*
X155077Y30550D01*
X155647Y30800D01*
X156217Y30717D01*
X156787Y30383D01*
M02*
