G04 ================== begin FILE IDENTIFICATION RECORD ==================*
G04 Layout Name:  snoic_test.brd*
G04 Film Name:    SILKSCREEN_TOP*
G04 File Format:  Gerber RS274X*
G04 File Origin:  Cadence Allegro 16.6-P004*
G04 Origin Date:  Tue Nov 04 00:15:37 2014*
G04 *
G04 Layer:  USER PART NUMBER/SILKSCREEN_TOP*
G04 Layer:  TOLERANCE/SILKSCREEN_TOP*
G04 Layer:  REF DES/SILKSCREEN_TOP*
G04 Layer:  PACKAGE GEOMETRY/ASSEMBLY_TOP*
G04 Layer:  PACKAGE GEOMETRY/SILKSCREEN_TOP*
G04 Layer:  DEVICE TYPE/SILKSCREEN_TOP*
G04 Layer:  COMPONENT VALUE/SILKSCREEN_TOP*
G04 Layer:  BOARD GEOMETRY/OUTLINE*
G04 Layer:  BOARD GEOMETRY/SILKSCREEN_TOP*
G04 *
G04 Offset:    (0.000 0.000)*
G04 Mirror:    No*
G04 Mode:      Positive*
G04 Rotation:  0*
G04 FullContactRelief:  No*
G04 UndefLineWidth:     6.000*
G04 ================== end FILE IDENTIFICATION RECORD ====================*
%FSLAX25Y25*MOIN*%
%IR0*IPPOS*OFA0.00000B0.00000*MIA0B0*SFA1.00000B1.00000*%
%ADD10C,.006*%
G75*
%LPD*%
G75*
G54D10*
G01X0Y0D02*
X170000D01*
Y333071D01*
X0D01*
Y0D01*
G01X6800Y28200D02*
X14300D01*
Y9700D01*
X6300D01*
Y28200D01*
X6800D01*
G01X13000Y18000D02*
X7600D01*
G01X13000Y20000D02*
X7600D01*
G01X10300Y17800D02*
Y16300D01*
G01Y21700D02*
Y20200D01*
G01X23400Y9700D02*
X15900D01*
Y28200D01*
X23900D01*
Y9700D01*
X23400D01*
G01X17200Y19900D02*
X22600D01*
G01X17200Y17900D02*
X22600D01*
G01X19900Y20100D02*
Y21600D01*
G01Y16200D02*
Y17700D01*
G01X35000Y36000D02*
X15000D01*
Y326000D01*
X35000D01*
Y36000D01*
G01D02*
X15000D01*
Y326000D01*
X35000D01*
Y36000D01*
G01X32900Y9500D02*
X25400D01*
Y28000D01*
X33400D01*
Y9500D01*
X32900D01*
G01X26700Y19700D02*
X32100D01*
G01X26700Y17700D02*
X32100D01*
G01X29400Y19900D02*
Y21400D01*
G01Y16000D02*
Y17500D01*
G01X42400Y9500D02*
X34900D01*
Y28000D01*
X42900D01*
Y9500D01*
X42400D01*
G01X36200Y19700D02*
X41600D01*
G01X36200Y17700D02*
X41600D01*
G01X38900Y19900D02*
Y21400D01*
G01Y16000D02*
Y17500D01*
G01X75442Y88200D02*
G03I-19685J0D01*
G01X75541D02*
G03I-19783J0D01*
G01X37321Y146967D02*
Y117833D01*
X77479D01*
Y146967D01*
X37321D01*
G01D02*
Y117833D01*
X77479D01*
Y146967D01*
X37321D01*
G01X75985Y261243D02*
G03I-19685J0D01*
G01X76083D02*
G03I-19783J0D01*
G01X51739Y-87D02*
Y53260D01*
X77133D01*
Y-87D01*
X51739D01*
G01X51936Y12D02*
X76739D01*
X76838Y-87D01*
X77133Y209D01*
Y53260D01*
X51739D01*
Y209D01*
X52035Y-87D01*
X54594D01*
Y-10028D01*
X54495Y-10126D01*
X72901D01*
X73393Y-9634D01*
Y12D01*
G01X62660Y159040D02*
Y164550D01*
X51150D01*
Y159040D01*
X62660D01*
G01X62400Y159300D02*
X51400D01*
Y164300D01*
X62400D01*
Y159300D01*
G01X65410Y299390D02*
Y307010D01*
X51780D01*
Y299390D01*
X65410D01*
G01X65100Y299700D02*
X52100D01*
Y300200D01*
Y306700D01*
X65100D01*
Y299700D01*
G01X68400Y321800D02*
Y314300D01*
X49900D01*
Y322300D01*
X68400D01*
Y321800D01*
G01X54495Y-284D02*
Y-10028D01*
X54692Y-10224D01*
X72802D01*
X73393Y-9634D01*
Y-185D01*
G01X57300Y160700D02*
Y163000D01*
G01X56600Y160700D02*
Y163000D01*
G01X57000Y185200D02*
X63690D01*
Y181400D01*
X57000D01*
Y185200D01*
G01X59290Y185590D02*
X54300D01*
Y181010D01*
X59290D01*
G01X61400D02*
X66390D01*
Y185590D01*
X61400D01*
G01X60300Y190400D02*
Y188100D01*
G01X61000Y190400D02*
Y188100D01*
G01X54940Y192060D02*
Y186550D01*
X66450D01*
Y192060D01*
X54940D01*
G01X55200Y191800D02*
X66200D01*
Y186800D01*
X55200D01*
Y191800D01*
G01X54840Y204960D02*
Y199450D01*
X66350D01*
Y204960D01*
X54840D01*
G01X60200Y197100D02*
Y194800D01*
G01X60900Y197100D02*
Y194800D01*
G01X54840Y198760D02*
Y193250D01*
X66350D01*
Y198760D01*
X54840D01*
G01X55100Y198500D02*
X66100D01*
Y193500D01*
X55100D01*
Y198500D01*
G01Y204700D02*
X66100D01*
Y199700D01*
X55100D01*
Y204700D01*
G01X60200Y203300D02*
Y201000D01*
G01X60900Y203300D02*
Y201000D01*
G01X63600Y206300D02*
X56910D01*
Y210100D01*
X63600D01*
Y206300D01*
G01X61310Y205910D02*
X66300D01*
Y210490D01*
X61310D01*
G01X59200D02*
X54210D01*
Y205910D01*
X59200D01*
G01X58200Y301700D02*
Y304700D01*
G01X58900Y301700D02*
Y304700D01*
G01X58200Y315600D02*
Y321000D01*
G01X60200Y315600D02*
Y321000D01*
G01X58000Y318300D02*
X56500D01*
G01X61900D02*
X60400D01*
G01X74141Y6705D02*
G03I-1831J0D01*
G01X76522Y142932D02*
G03I-1504J0D01*
G01X72300Y160400D02*
Y162700D01*
G01X71600Y160400D02*
Y162700D01*
G01X77660Y158740D02*
Y164250D01*
X66150D01*
Y158740D01*
X77660D01*
G01X77400Y159000D02*
X66400D01*
Y164000D01*
X77400D01*
Y159000D01*
G01X68900Y175700D02*
Y182390D01*
X72700D01*
Y175700D01*
X68900D01*
G01X68510Y177990D02*
Y173000D01*
X73090D01*
Y177990D01*
G01Y180100D02*
Y185090D01*
X68510D01*
Y180100D01*
G01X68900Y189300D02*
Y195990D01*
X72700D01*
Y189300D01*
X68900D01*
G01X68510Y191590D02*
Y186600D01*
X73090D01*
Y191590D01*
G01Y193700D02*
Y198690D01*
X68510D01*
Y193700D01*
G01X72700Y214900D02*
Y208210D01*
X68900D01*
Y214900D01*
X72700D01*
G01X68510Y210500D02*
Y205510D01*
X73090D01*
Y210500D01*
G01Y212610D02*
Y217600D01*
X68510D01*
Y212610D01*
G01X69100Y295500D02*
X75790D01*
Y291700D01*
X69100D01*
Y295500D01*
G01X71390Y295890D02*
X66400D01*
Y291310D01*
X71390D01*
G01X73500D02*
X78490D01*
Y295890D01*
X73500D01*
G01X71800Y305100D02*
X78490D01*
Y301300D01*
X71800D01*
Y305100D01*
G01X74090Y305490D02*
X69100D01*
Y300910D01*
X74090D01*
G01X89390Y137310D02*
Y142300D01*
X84810D01*
Y137310D01*
G01Y135200D02*
Y130210D01*
X89390D01*
Y135200D01*
G01X96046Y294978D02*
Y301671D01*
X84235D01*
Y294978D01*
X96046D01*
G01D02*
Y301671D01*
X84235D01*
Y294978D01*
X96046D01*
G01X76200Y300910D02*
X81190D01*
Y305490D01*
X76200D01*
G01X77300Y314900D02*
X79600D01*
G01X77300Y315600D02*
X79600D01*
G01X75640Y309540D02*
X81150D01*
Y321050D01*
X75640D01*
Y309540D01*
G01X75900Y309800D02*
Y320800D01*
X80900D01*
Y309800D01*
X75900D01*
G01X89490Y320590D02*
X84500D01*
Y316010D01*
X89490D01*
G01X86010Y16200D02*
Y11210D01*
X90590D01*
Y16200D01*
G01X90900Y8600D02*
Y6300D01*
G01X91600Y8600D02*
Y6300D01*
G01X85540Y10260D02*
Y4750D01*
X97050D01*
Y10260D01*
X85540D01*
G01X85800Y10000D02*
X96800D01*
Y5000D01*
X85800D01*
Y10000D01*
G01X90200Y20600D02*
Y13910D01*
X86400D01*
Y20600D01*
X90200D01*
G01X90590Y18310D02*
Y23300D01*
X86010D01*
Y18310D01*
G01X90000Y45600D02*
Y38910D01*
X86200D01*
Y45600D01*
X90000D01*
G01X85810Y41200D02*
Y36210D01*
X90390D01*
Y41200D01*
G01Y43310D02*
Y48300D01*
X85810D01*
Y43310D01*
G01X90700Y54600D02*
Y52300D01*
G01X91400Y54600D02*
Y52300D01*
G01X85340Y56260D02*
Y50750D01*
X96850D01*
Y56260D01*
X85340D01*
G01X85600Y56000D02*
X96600D01*
Y51000D01*
X85600D01*
Y56000D01*
G01X133942Y88200D02*
G03I-19685J0D01*
G01X134041D02*
G03I-19783J0D01*
G01X92772Y114890D02*
Y126406D01*
X89327D01*
Y114791D01*
X92673D01*
X92772Y114890D01*
G01D02*
Y126406D01*
X89425D01*
X89327Y126307D01*
Y114791D01*
X92673D01*
X92772Y114890D01*
G01X88300Y111200D02*
X94990D01*
Y107400D01*
X88300D01*
Y111200D01*
G01X90590Y111590D02*
X85600D01*
Y107010D01*
X90590D01*
G01X92700D02*
X97690D01*
Y111590D01*
X92700D01*
G01X95890Y137310D02*
Y142300D01*
X91310D01*
Y137310D01*
G01X95500Y139600D02*
Y132910D01*
X91700D01*
Y139600D01*
X95500D01*
G01X91310Y135200D02*
Y130210D01*
X95890D01*
Y135200D01*
G01X89000Y139600D02*
Y132910D01*
X85200D01*
Y139600D01*
X89000D01*
G01X87052Y173674D02*
X104548D01*
Y207926D01*
X87052D01*
Y173674D01*
G01D02*
X104548D01*
Y207926D01*
X87052D01*
Y173674D01*
G01X93918Y205367D02*
G03I-1760J0D01*
G01X92361Y237821D02*
X112439D01*
Y277979D01*
X92361D01*
Y237821D01*
G01D02*
X112439D01*
Y277979D01*
X92361D01*
Y237821D01*
G01X96373Y273156D02*
G03I-1453J0D01*
G01X87502Y297242D02*
G03I-1102J0D01*
G01X87200Y320200D02*
X93890D01*
Y316400D01*
X87200D01*
Y320200D01*
G01X91600Y316010D02*
X96590D01*
Y320590D01*
X91600D01*
G01X108200Y5600D02*
X101510D01*
Y9400D01*
X108200D01*
Y5600D01*
G01X103800Y9790D02*
X98810D01*
Y5210D01*
X103800D01*
G01X99752Y12774D02*
X117248D01*
Y47026D01*
X99752D01*
Y12774D01*
G01D02*
X117248D01*
Y47026D01*
X99752D01*
Y12774D01*
G01X106618Y44467D02*
G03I-1760J0D01*
G01X107500Y51600D02*
X100810D01*
Y55400D01*
X107500D01*
Y51600D01*
G01X105210Y51210D02*
X110200D01*
Y55790D01*
X105210D01*
G01X103100D02*
X98110D01*
Y51210D01*
X103100D01*
G01X101800Y122400D02*
X108490D01*
Y118600D01*
X101800D01*
Y122400D01*
G01X104090Y122790D02*
X99100D01*
Y118210D01*
X104090D01*
G01X108500Y124600D02*
X101810D01*
Y128400D01*
X108500D01*
Y124600D01*
G01X104100Y128790D02*
X99110D01*
Y124210D01*
X104100D01*
G01X104090Y137310D02*
Y142300D01*
X99510D01*
Y137310D01*
G01X103700Y139600D02*
Y132910D01*
X99900D01*
Y139600D01*
X103700D01*
G01X99510Y135200D02*
Y130210D01*
X104090D01*
Y135200D01*
G01X104240Y152060D02*
Y146550D01*
X115750D01*
Y152060D01*
X104240D01*
G01X104500Y151800D02*
X115500D01*
Y146800D01*
X104500D01*
Y151800D01*
G01X108590Y157690D02*
X103600D01*
Y153110D01*
X108590D01*
G01X103540Y169760D02*
Y164250D01*
X115050D01*
Y169760D01*
X103540D01*
G01X108600Y163190D02*
X103610D01*
Y158610D01*
X108600D01*
G01X103800Y169500D02*
X114800D01*
Y164500D01*
X103800D01*
Y169500D01*
G01X111000Y290100D02*
X103500D01*
Y308600D01*
X111500D01*
Y290100D01*
X111000D01*
G01X104800Y300300D02*
X110200D01*
G01X104800Y298300D02*
X110200D01*
G01X104000Y314800D02*
Y322300D01*
X122500D01*
Y314300D01*
X104000D01*
Y314800D01*
G01X105910Y5210D02*
X110900D01*
Y9790D01*
X105910D01*
G01X106200Y118210D02*
X111190D01*
Y122790D01*
X106200D01*
G01X106210Y124210D02*
X111200D01*
Y128790D01*
X106210D01*
G01X106300Y157300D02*
X112990D01*
Y153500D01*
X106300D01*
Y157300D01*
G01X110700Y153110D02*
X115690D01*
Y157690D01*
X110700D01*
G01X109600Y150400D02*
Y148100D01*
G01X110300Y150400D02*
Y148100D01*
G01X108900Y168100D02*
Y165800D01*
G01X109600Y168100D02*
Y165800D01*
G01X113000Y159000D02*
X106310D01*
Y162800D01*
X113000D01*
Y159000D01*
G01X110710Y158610D02*
X115700D01*
Y163190D01*
X110710D01*
G01X112140Y178040D02*
X117650D01*
Y189550D01*
X112140D01*
Y178040D01*
G01X112400Y178300D02*
Y189300D01*
X117400D01*
Y178300D01*
X112400D01*
G01X113800Y183400D02*
X116100D01*
G01X113800Y184100D02*
X116100D01*
G01X113200Y199100D02*
Y205790D01*
X117000D01*
Y199100D01*
X113200D01*
G01X112810Y201390D02*
Y196400D01*
X117390D01*
Y201390D01*
G01Y203500D02*
Y208490D01*
X112810D01*
Y203500D01*
G01X107500Y300500D02*
Y302000D01*
G01Y296600D02*
Y298100D01*
G01X114200Y321000D02*
Y315600D01*
G01X112200Y321000D02*
Y315600D01*
G01X114400Y318300D02*
X115900D01*
G01X110500D02*
X112000D01*
G01X129600Y21600D02*
Y14910D01*
X125800D01*
Y21600D01*
X129600D01*
G01X129990Y19310D02*
Y24300D01*
X125410D01*
Y19310D01*
G01Y17200D02*
Y12210D01*
X129990D01*
Y17200D01*
G01X129500Y44900D02*
Y38210D01*
X125700D01*
Y44900D01*
X129500D01*
G01X129890Y42610D02*
Y47600D01*
X125310D01*
Y42610D01*
G01Y40500D02*
Y35510D01*
X129890D01*
Y40500D01*
G01X125510Y152000D02*
Y147010D01*
X130090D01*
Y152000D01*
G01X129700Y156400D02*
Y149710D01*
X125900D01*
Y156400D01*
X129700D01*
G01X130090Y154110D02*
Y159100D01*
X125510D01*
Y154110D01*
G01Y172190D02*
Y167200D01*
X130090D01*
Y172190D01*
G01X118410Y182400D02*
Y177410D01*
X122990D01*
Y182400D01*
G01X125900Y169900D02*
Y176590D01*
X129700D01*
Y169900D01*
X125900D01*
G01X130090Y174300D02*
Y179290D01*
X125510D01*
Y174300D01*
G01X122600Y186800D02*
Y180110D01*
X118800D01*
Y186800D01*
X122600D01*
G01X122990Y184510D02*
Y189500D01*
X118410D01*
Y184510D01*
G01X128900Y188300D02*
X126600D01*
G01X128900Y187600D02*
X126600D01*
G01X130560Y193660D02*
X125050D01*
Y182150D01*
X130560D01*
Y193660D01*
G01X130300Y193400D02*
Y182400D01*
X125300D01*
Y193400D01*
X130300D01*
G01X118800Y199100D02*
Y205790D01*
X122600D01*
Y199100D01*
X118800D01*
G01X118410Y201390D02*
Y196400D01*
X122990D01*
Y201390D01*
G01Y203500D02*
Y208490D01*
X118410D01*
Y203500D01*
G01X127390Y228600D02*
Y233590D01*
X122810D01*
Y228600D01*
G01Y226490D02*
Y221500D01*
X127390D01*
Y226490D01*
G01X123200Y224200D02*
Y230890D01*
X127000D01*
Y224200D01*
X123200D01*
G01X153000Y17200D02*
Y9700D01*
X134500D01*
Y17700D01*
X153000D01*
Y17200D01*
G01X152900Y26900D02*
Y19400D01*
X134400D01*
Y27400D01*
X152900D01*
Y26900D01*
G01X155000Y36000D02*
X135000D01*
Y326000D01*
X155000D01*
Y36000D01*
G01D02*
X135000D01*
Y326000D01*
X155000D01*
Y36000D01*
G01X128810Y226390D02*
Y221400D01*
X133390D01*
Y226390D01*
G01X129200Y224100D02*
Y230790D01*
X133000D01*
Y224100D01*
X129200D01*
G01X133390Y228500D02*
Y233490D01*
X128810D01*
Y228500D01*
G01X142800Y11000D02*
Y16400D01*
G01X144800Y11000D02*
Y16400D01*
G01X140200Y8600D02*
X146890D01*
Y4800D01*
X140200D01*
Y8600D01*
G01X142490Y8990D02*
X137500D01*
Y4410D01*
X142490D01*
G01X144600D02*
X149590D01*
Y8990D01*
X144600D01*
G01X142600Y13700D02*
X141100D01*
G01X146500D02*
X145000D01*
G01X142700Y20700D02*
Y26100D01*
G01X144700Y20700D02*
Y26100D01*
G01X142500Y23400D02*
X141000D01*
G01X146400D02*
X144900D01*
G01X140100Y32300D02*
X146790D01*
Y28500D01*
X140100D01*
Y32300D01*
G01X142390Y32690D02*
X137400D01*
Y28110D01*
X142390D01*
G01X144500D02*
X149490D01*
Y32690D01*
X144500D01*
G01X156210Y118190D02*
Y113200D01*
X160790D01*
Y118190D01*
G01X156600Y115900D02*
Y122590D01*
X160400D01*
Y115900D01*
X156600D01*
G01X156210Y131590D02*
Y126600D01*
X160790D01*
Y131590D01*
G01Y120300D02*
Y125290D01*
X156210D01*
Y120300D01*
G01X156600Y129300D02*
Y135990D01*
X160400D01*
Y129300D01*
X156600D01*
G01X160790Y133700D02*
Y138690D01*
X156210D01*
Y133700D01*
G01X161940Y102140D02*
X167450D01*
Y113650D01*
X161940D01*
Y102140D01*
G01X162200Y102400D02*
Y113400D01*
X167200D01*
Y102400D01*
X162200D01*
G01X163600Y107500D02*
X165900D01*
G01X163600Y108200D02*
X165900D01*
G01X167460Y132060D02*
X161950D01*
Y120550D01*
X167460D01*
Y132060D01*
G01X165800Y126000D02*
X163500D01*
G01X165800Y126700D02*
X163500D01*
G01X167200Y131800D02*
Y120800D01*
X162200D01*
Y131800D01*
X167200D01*
G01X12000Y1233D02*
X7000D01*
Y2817D01*
X7250Y3323D01*
X7583Y3640D01*
X8250Y3767D01*
X8917Y3640D01*
X9333Y3260D01*
X9583Y2817D01*
Y1233D01*
G01Y2817D02*
X12000Y3767D01*
G01X11000Y6207D02*
X11583Y6587D01*
X11917Y7093D01*
X12000Y7663D01*
X11917Y8170D01*
X11500Y8677D01*
X11000Y8993D01*
X10500Y9057D01*
X9917Y8930D01*
X9500Y8487D01*
X9333Y8043D01*
Y7473D01*
G01Y8043D02*
X9083Y8423D01*
X8667Y8740D01*
X8167Y8867D01*
X7667Y8740D01*
X7250Y8423D01*
X7000Y7853D01*
X7083Y7283D01*
X7417Y6713D01*
G01X21300Y1033D02*
X16300D01*
Y2617D01*
X16550Y3123D01*
X16883Y3440D01*
X17550Y3567D01*
X18217Y3440D01*
X18633Y3060D01*
X18883Y2617D01*
Y1033D01*
G01Y2617D02*
X21300Y3567D01*
G01Y7400D02*
X16300D01*
X17300Y6640D01*
G01X21300D02*
Y8160D01*
G01X32000Y1133D02*
X27000D01*
Y2717D01*
X27250Y3223D01*
X27583Y3540D01*
X28250Y3667D01*
X28917Y3540D01*
X29333Y3160D01*
X29583Y2717D01*
Y1133D01*
G01Y2717D02*
X32000Y3667D01*
G01X27833Y6297D02*
X27333Y6677D01*
X27083Y7120D01*
X27000Y7627D01*
X27167Y8260D01*
X27583Y8703D01*
X28083Y8830D01*
X28584Y8767D01*
X29000Y8513D01*
X29833Y7247D01*
X30417Y6677D01*
X31250Y6297D01*
X32000Y6170D01*
Y8830D01*
G01X41500Y1033D02*
X36500D01*
Y2617D01*
X36750Y3123D01*
X37083Y3440D01*
X37750Y3567D01*
X38417Y3440D01*
X38833Y3060D01*
X39083Y2617D01*
Y1033D01*
G01Y2617D02*
X41500Y3567D01*
G01Y7273D02*
X40417Y7400D01*
X39500Y7590D01*
X38667Y7843D01*
X37750Y8160D01*
X36500Y8667D01*
Y6133D01*
G01X45193Y163883D02*
X44813Y164133D01*
X44370Y164300D01*
X43863D01*
X43293Y164050D01*
X42850Y163633D01*
X42533Y163133D01*
X42280Y162300D01*
X42217Y161550D01*
X42343Y160800D01*
X42533Y160300D01*
X42913Y159800D01*
X43357Y159467D01*
X43800Y159300D01*
X44243D01*
X44687Y159467D01*
X45067Y159717D01*
X45383Y160050D01*
G01X48900Y159300D02*
X49343Y159383D01*
X49850Y159633D01*
X50167Y160050D01*
X50293Y160633D01*
X50167Y161217D01*
X49787Y161717D01*
X49217Y161967D01*
X48583D01*
X48203Y162133D01*
X47887Y162550D01*
X47760Y163133D01*
X47950Y163717D01*
X48393Y164133D01*
X48900Y164300D01*
X49407Y164133D01*
X49850Y163717D01*
X50040Y163133D01*
X49913Y162550D01*
X49597Y162133D01*
X49217Y161967D01*
X48583D01*
X48013Y161717D01*
X47633Y161217D01*
X47507Y160633D01*
X47633Y160050D01*
X47950Y159633D01*
X48457Y159383D01*
X48900Y159300D01*
G01X39833Y180700D02*
Y185700D01*
X41417D01*
X41923Y185450D01*
X42240Y185117D01*
X42367Y184450D01*
X42240Y183783D01*
X41860Y183367D01*
X41417Y183117D01*
X39833D01*
G01X41417D02*
X42367Y180700D01*
G01X44807Y181450D02*
X45187Y181033D01*
X45630Y180783D01*
X46200Y180700D01*
X46770Y180867D01*
X47213Y181200D01*
X47530Y181783D01*
X47593Y182450D01*
X47467Y183117D01*
X47150Y183533D01*
X46707Y183867D01*
X46263Y183950D01*
X45820Y183867D01*
X45250Y183533D01*
X45440Y185700D01*
X47150D01*
G01X49907Y181450D02*
X50287Y181033D01*
X50730Y180783D01*
X51300Y180700D01*
X51870Y180867D01*
X52313Y181200D01*
X52630Y181783D01*
X52693Y182450D01*
X52567Y183117D01*
X52250Y183533D01*
X51807Y183867D01*
X51363Y183950D01*
X50920Y183867D01*
X50350Y183533D01*
X50540Y185700D01*
X52250D01*
G01X42393Y191783D02*
X42013Y192033D01*
X41570Y192200D01*
X41063D01*
X40493Y191950D01*
X40050Y191533D01*
X39733Y191033D01*
X39480Y190200D01*
X39417Y189450D01*
X39543Y188700D01*
X39733Y188200D01*
X40113Y187700D01*
X40557Y187367D01*
X41000Y187200D01*
X41443D01*
X41887Y187367D01*
X42267Y187617D01*
X42583Y187950D01*
G01X44897Y191367D02*
X45277Y191867D01*
X45720Y192117D01*
X46227Y192200D01*
X46860Y192033D01*
X47303Y191617D01*
X47430Y191117D01*
X47367Y190616D01*
X47113Y190200D01*
X45847Y189367D01*
X45277Y188783D01*
X44897Y187950D01*
X44770Y187200D01*
X47430D01*
G01X51073D02*
X51200Y188283D01*
X51390Y189200D01*
X51643Y190033D01*
X51960Y190950D01*
X52467Y192200D01*
X49933D01*
G01X42893Y198183D02*
X42513Y198433D01*
X42070Y198600D01*
X41563D01*
X40993Y198350D01*
X40550Y197933D01*
X40233Y197433D01*
X39980Y196600D01*
X39917Y195850D01*
X40043Y195100D01*
X40233Y194600D01*
X40613Y194100D01*
X41057Y193767D01*
X41500Y193600D01*
X41943D01*
X42387Y193767D01*
X42767Y194017D01*
X43083Y194350D01*
G01X45397Y197767D02*
X45777Y198267D01*
X46220Y198517D01*
X46727Y198600D01*
X47360Y198433D01*
X47803Y198017D01*
X47930Y197517D01*
X47867Y197016D01*
X47613Y196600D01*
X46347Y195767D01*
X45777Y195183D01*
X45397Y194350D01*
X45270Y193600D01*
X47930D01*
G01X50497Y195683D02*
X50940Y196267D01*
X51320Y196600D01*
X51827Y196767D01*
X52270Y196600D01*
X52587Y196267D01*
X52840Y195767D01*
X52903Y195183D01*
X52840Y194683D01*
X52587Y194183D01*
X52207Y193767D01*
X51763Y193600D01*
X51257Y193767D01*
X50813Y194266D01*
X50560Y195017D01*
X50497Y195850D01*
X50623Y196933D01*
X50813Y197517D01*
X51130Y198100D01*
X51573Y198517D01*
X52017Y198600D01*
X52460Y198433D01*
X52777Y198017D01*
G01X42993Y204083D02*
X42613Y204333D01*
X42170Y204500D01*
X41663D01*
X41093Y204250D01*
X40650Y203833D01*
X40333Y203333D01*
X40080Y202500D01*
X40017Y201750D01*
X40143Y201000D01*
X40333Y200500D01*
X40713Y200000D01*
X41157Y199667D01*
X41600Y199500D01*
X42043D01*
X42487Y199667D01*
X42867Y199917D01*
X43183Y200250D01*
G01X45497Y203667D02*
X45877Y204167D01*
X46320Y204417D01*
X46827Y204500D01*
X47460Y204333D01*
X47903Y203917D01*
X48030Y203417D01*
X47967Y202916D01*
X47713Y202500D01*
X46447Y201667D01*
X45877Y201083D01*
X45497Y200250D01*
X45370Y199500D01*
X48030D01*
G01X50407Y200250D02*
X50787Y199833D01*
X51230Y199583D01*
X51800Y199500D01*
X52370Y199667D01*
X52813Y200000D01*
X53130Y200583D01*
X53193Y201250D01*
X53067Y201917D01*
X52750Y202333D01*
X52307Y202667D01*
X51863Y202750D01*
X51420Y202667D01*
X50850Y202333D01*
X51040Y204500D01*
X52750D01*
G01X40733Y206000D02*
Y211000D01*
X42317D01*
X42823Y210750D01*
X43140Y210417D01*
X43267Y209750D01*
X43140Y209083D01*
X42760Y208667D01*
X42317Y208417D01*
X40733D01*
G01X42317D02*
X43267Y206000D01*
G01X45707Y206750D02*
X46087Y206333D01*
X46530Y206083D01*
X47100Y206000D01*
X47670Y206167D01*
X48113Y206500D01*
X48430Y207083D01*
X48493Y207750D01*
X48367Y208417D01*
X48050Y208833D01*
X47607Y209167D01*
X47163Y209250D01*
X46720Y209167D01*
X46150Y208833D01*
X46340Y211000D01*
X48050D01*
G01X52200D02*
X51693Y210833D01*
X51313Y210417D01*
X51060Y209917D01*
X50870Y209250D01*
X50807Y208500D01*
X50870Y207750D01*
X51060Y207083D01*
X51313Y206583D01*
X51693Y206167D01*
X52200Y206000D01*
X52707Y206167D01*
X53087Y206583D01*
X53340Y207083D01*
X53530Y207750D01*
X53593Y208500D01*
X53530Y209250D01*
X53340Y209917D01*
X53087Y210417D01*
X52707Y210833D01*
X52200Y211000D01*
G01X62400Y107917D02*
X58817D01*
X58066Y107664D01*
X57567Y107157D01*
X57400Y106524D01*
X57567Y105890D01*
X58066Y105384D01*
X58817Y105130D01*
X62400D01*
G01X58400Y102817D02*
X57817Y102437D01*
X57483Y101930D01*
X57400Y101360D01*
X57483Y100854D01*
X57900Y100347D01*
X58400Y100030D01*
X58900Y99967D01*
X59483Y100094D01*
X59900Y100537D01*
X60067Y100980D01*
Y101550D01*
G01Y100980D02*
X60317Y100600D01*
X60733Y100284D01*
X61233Y100157D01*
X61733Y100284D01*
X62150Y100600D01*
X62400Y101170D01*
X62317Y101740D01*
X61983Y102310D01*
G01X56307Y293300D02*
Y298300D01*
X57573D01*
X58080Y298050D01*
X58460Y297717D01*
X58777Y297217D01*
X59030Y296633D01*
X59093Y295800D01*
X59030Y294967D01*
X58777Y294383D01*
X58460Y293883D01*
X58080Y293550D01*
X57573Y293300D01*
X56307D01*
G01X62800D02*
Y298300D01*
X62040Y297300D01*
G01Y293300D02*
X63560D01*
G01X54833Y323300D02*
Y328300D01*
X56417D01*
X56923Y328050D01*
X57240Y327717D01*
X57367Y327050D01*
X57240Y326383D01*
X56860Y325967D01*
X56417Y325717D01*
X54833D01*
G01X56417D02*
X57367Y323300D01*
G01X59807Y324050D02*
X60187Y323633D01*
X60630Y323383D01*
X61200Y323300D01*
X61770Y323467D01*
X62213Y323800D01*
X62530Y324383D01*
X62593Y325050D01*
X62467Y325717D01*
X62150Y326133D01*
X61707Y326467D01*
X61263Y326550D01*
X60820Y326467D01*
X60250Y326133D01*
X60440Y328300D01*
X62150D01*
G01X70593Y169483D02*
X70213Y169733D01*
X69770Y169900D01*
X69263D01*
X68693Y169650D01*
X68250Y169233D01*
X67933Y168733D01*
X67680Y167900D01*
X67617Y167150D01*
X67743Y166400D01*
X67933Y165900D01*
X68313Y165400D01*
X68757Y165067D01*
X69200Y164900D01*
X69643D01*
X70087Y165067D01*
X70467Y165317D01*
X70783Y165650D01*
G01X72907D02*
X73287Y165233D01*
X73730Y164983D01*
X74300Y164900D01*
X74870Y165067D01*
X75313Y165400D01*
X75630Y165983D01*
X75693Y166650D01*
X75567Y167317D01*
X75250Y167733D01*
X74807Y168067D01*
X74363Y168150D01*
X73920Y168067D01*
X73350Y167733D01*
X73540Y169900D01*
X75250D01*
G01X79000Y187833D02*
X74000D01*
Y189417D01*
X74250Y189923D01*
X74583Y190240D01*
X75250Y190367D01*
X75917Y190240D01*
X76333Y189860D01*
X76583Y189417D01*
Y187833D01*
G01Y189417D02*
X79000Y190367D01*
G01X78250Y192807D02*
X78667Y193187D01*
X78917Y193630D01*
X79000Y194200D01*
X78833Y194770D01*
X78500Y195213D01*
X77917Y195530D01*
X77250Y195593D01*
X76583Y195467D01*
X76167Y195150D01*
X75833Y194707D01*
X75750Y194263D01*
X75833Y193820D01*
X76167Y193250D01*
X74000Y193440D01*
Y195150D01*
G01X79000Y199300D02*
X74000D01*
X75000Y198540D01*
G01X79000D02*
Y200060D01*
G01X73400Y218633D02*
X68400D01*
Y220217D01*
X68650Y220723D01*
X68983Y221040D01*
X69650Y221167D01*
X70317Y221040D01*
X70733Y220660D01*
X70983Y220217D01*
Y218633D01*
G01Y220217D02*
X73400Y221167D01*
G01Y225760D02*
X68400D01*
X71983Y223417D01*
Y226583D01*
G01X72817Y229023D02*
X73233Y229467D01*
X73400Y229973D01*
X73233Y230480D01*
X72734Y230923D01*
X71983Y231240D01*
X71233Y231367D01*
X70317D01*
X69567Y231240D01*
X68900Y230923D01*
X68567Y230543D01*
X68400Y230100D01*
X68567Y229593D01*
X68900Y229213D01*
X69400Y228960D01*
X70067Y228833D01*
X70650Y228960D01*
X71233Y229277D01*
X71567Y229657D01*
X71650Y230100D01*
X71483Y230607D01*
X71067Y230987D01*
X70317Y231367D01*
G01X68533Y284800D02*
Y289800D01*
X70117D01*
X70623Y289550D01*
X70940Y289217D01*
X71067Y288550D01*
X70940Y287883D01*
X70560Y287467D01*
X70117Y287217D01*
X68533D01*
G01X70117D02*
X71067Y284800D01*
G01X73697Y286883D02*
X74140Y287467D01*
X74520Y287800D01*
X75027Y287967D01*
X75470Y287800D01*
X75787Y287467D01*
X76040Y286967D01*
X76103Y286383D01*
X76040Y285883D01*
X75787Y285383D01*
X75407Y284967D01*
X74963Y284800D01*
X74457Y284967D01*
X74013Y285466D01*
X73760Y286217D01*
X73697Y287050D01*
X73823Y288133D01*
X74013Y288717D01*
X74330Y289300D01*
X74773Y289717D01*
X75217Y289800D01*
X75660Y289633D01*
X75977Y289217D01*
G01X66933Y305900D02*
Y310900D01*
X68517D01*
X69023Y310650D01*
X69340Y310317D01*
X69467Y309650D01*
X69340Y308983D01*
X68960Y308567D01*
X68517Y308317D01*
X66933D01*
G01X68517D02*
X69467Y305900D01*
G01X73300D02*
X73743Y305983D01*
X74250Y306233D01*
X74567Y306650D01*
X74693Y307233D01*
X74567Y307817D01*
X74187Y308317D01*
X73617Y308567D01*
X72983D01*
X72603Y308733D01*
X72287Y309150D01*
X72160Y309733D01*
X72350Y310317D01*
X72793Y310733D01*
X73300Y310900D01*
X73807Y310733D01*
X74250Y310317D01*
X74440Y309733D01*
X74313Y309150D01*
X73997Y308733D01*
X73617Y308567D01*
X72983D01*
X72413Y308317D01*
X72033Y307817D01*
X71907Y307233D01*
X72033Y306650D01*
X72350Y306233D01*
X72857Y305983D01*
X73300Y305900D01*
G01X78800Y62467D02*
X83800D01*
Y60883D01*
X83550Y60377D01*
X83217Y60060D01*
X82550Y59933D01*
X81883Y60060D01*
X81467Y60440D01*
X81217Y60883D01*
Y62467D01*
G01Y60883D02*
X78800Y59933D01*
G01Y56100D02*
X83800D01*
X82800Y56860D01*
G01X78800D02*
Y55340D01*
G01X80883Y52203D02*
X81467Y51760D01*
X81800Y51380D01*
X81967Y50873D01*
X81800Y50430D01*
X81467Y50113D01*
X80967Y49860D01*
X80383Y49797D01*
X79883Y49860D01*
X79383Y50113D01*
X78967Y50493D01*
X78800Y50937D01*
X78967Y51443D01*
X79466Y51887D01*
X80217Y52140D01*
X81050Y52203D01*
X82133Y52077D01*
X82717Y51887D01*
X83300Y51570D01*
X83717Y51127D01*
X83800Y50683D01*
X83633Y50240D01*
X83217Y49923D01*
G01X78700Y141967D02*
X83700D01*
Y140383D01*
X83450Y139877D01*
X83117Y139560D01*
X82450Y139433D01*
X81783Y139560D01*
X81367Y139940D01*
X81117Y140383D01*
Y141967D01*
G01Y140383D02*
X78700Y139433D01*
G01X82867Y136803D02*
X83367Y136423D01*
X83617Y135980D01*
X83700Y135473D01*
X83533Y134840D01*
X83117Y134397D01*
X82617Y134270D01*
X82116Y134333D01*
X81700Y134587D01*
X80867Y135853D01*
X80283Y136423D01*
X79450Y136803D01*
X78700Y136930D01*
Y134270D01*
G01Y129740D02*
X83700D01*
X80117Y132083D01*
Y128917D01*
G01X79200Y172633D02*
X74200D01*
Y174217D01*
X74450Y174723D01*
X74783Y175040D01*
X75450Y175167D01*
X76117Y175040D01*
X76533Y174660D01*
X76783Y174217D01*
Y172633D01*
G01Y174217D02*
X79200Y175167D01*
G01X78450Y177607D02*
X78867Y177987D01*
X79117Y178430D01*
X79200Y179000D01*
X79033Y179570D01*
X78700Y180013D01*
X78117Y180330D01*
X77450Y180393D01*
X76783Y180267D01*
X76367Y179950D01*
X76033Y179507D01*
X75950Y179063D01*
X76033Y178620D01*
X76367Y178050D01*
X74200Y178240D01*
Y179950D01*
G01X75033Y182897D02*
X74533Y183277D01*
X74283Y183720D01*
X74200Y184227D01*
X74367Y184860D01*
X74783Y185303D01*
X75283Y185430D01*
X75784Y185367D01*
X76200Y185113D01*
X77033Y183847D01*
X77617Y183277D01*
X78450Y182897D01*
X79200Y182770D01*
Y185430D01*
G01X83607Y281700D02*
Y278117D01*
X83860Y277366D01*
X84367Y276867D01*
X85000Y276700D01*
X85633Y276867D01*
X86140Y277366D01*
X86393Y278117D01*
Y281700D01*
G01X88897Y278783D02*
X89340Y279367D01*
X89720Y279700D01*
X90227Y279867D01*
X90670Y279700D01*
X90987Y279367D01*
X91240Y278867D01*
X91303Y278283D01*
X91240Y277783D01*
X90987Y277283D01*
X90607Y276867D01*
X90163Y276700D01*
X89657Y276867D01*
X89213Y277366D01*
X88960Y278117D01*
X88897Y278950D01*
X89023Y280033D01*
X89213Y280617D01*
X89530Y281200D01*
X89973Y281617D01*
X90417Y281700D01*
X90860Y281533D01*
X91177Y281117D01*
G01X80007Y289600D02*
Y286017D01*
X80260Y285266D01*
X80767Y284767D01*
X81400Y284600D01*
X82033Y284767D01*
X82540Y285266D01*
X82793Y286017D01*
Y289600D01*
G01X85297Y288767D02*
X85677Y289267D01*
X86120Y289517D01*
X86627Y289600D01*
X87260Y289433D01*
X87703Y289017D01*
X87830Y288517D01*
X87767Y288016D01*
X87513Y287600D01*
X86247Y286767D01*
X85677Y286183D01*
X85297Y285350D01*
X85170Y284600D01*
X87830D01*
G01X84933Y321700D02*
Y326700D01*
X86517D01*
X87023Y326450D01*
X87340Y326117D01*
X87467Y325450D01*
X87340Y324783D01*
X86960Y324367D01*
X86517Y324117D01*
X84933D01*
G01X86517D02*
X87467Y321700D01*
G01X91300D02*
Y326700D01*
X90540Y325700D01*
G01Y321700D02*
X92060D01*
G01X96400D02*
Y326700D01*
X95640Y325700D01*
G01Y321700D02*
X97160D01*
G01X77893Y328183D02*
X77513Y328433D01*
X77070Y328600D01*
X76563D01*
X75993Y328350D01*
X75550Y327933D01*
X75233Y327433D01*
X74980Y326600D01*
X74917Y325850D01*
X75043Y325100D01*
X75233Y324600D01*
X75613Y324100D01*
X76057Y323767D01*
X76500Y323600D01*
X76943D01*
X77387Y323767D01*
X77767Y324017D01*
X78083Y324350D01*
G01X81600Y323600D02*
Y328600D01*
X80840Y327600D01*
G01Y323600D02*
X82360D01*
G01X88423Y62103D02*
X88043Y62353D01*
X87600Y62520D01*
X87093D01*
X86523Y62270D01*
X86080Y61853D01*
X85763Y61353D01*
X85510Y60520D01*
X85446Y59770D01*
X85573Y59020D01*
X85763Y58520D01*
X86143Y58020D01*
X86587Y57687D01*
X87030Y57520D01*
X87473D01*
X87917Y57687D01*
X88297Y57937D01*
X88613Y58270D01*
G01X92130Y57520D02*
Y62520D01*
X91370Y61520D01*
G01Y57520D02*
X92890D01*
G01X97230D02*
Y62520D01*
X96470Y61520D01*
G01Y57520D02*
X97990D01*
G01X85633Y100700D02*
Y105700D01*
X87217D01*
X87723Y105450D01*
X88040Y105117D01*
X88167Y104450D01*
X88040Y103783D01*
X87660Y103367D01*
X87217Y103117D01*
X85633D01*
G01X87217D02*
X88167Y100700D01*
G01X90797Y104867D02*
X91177Y105367D01*
X91620Y105617D01*
X92127Y105700D01*
X92760Y105533D01*
X93203Y105117D01*
X93330Y104617D01*
X93267Y104116D01*
X93013Y103700D01*
X91747Y102867D01*
X91177Y102283D01*
X90797Y101450D01*
X90670Y100700D01*
X93330D01*
G01X97100D02*
Y105700D01*
X96340Y104700D01*
G01Y100700D02*
X97860D01*
G01X92593Y151783D02*
X92213Y152033D01*
X91770Y152200D01*
X91263D01*
X90693Y151950D01*
X90250Y151533D01*
X89933Y151033D01*
X89680Y150200D01*
X89617Y149450D01*
X89743Y148700D01*
X89933Y148200D01*
X90313Y147700D01*
X90757Y147367D01*
X91200Y147200D01*
X91643D01*
X92087Y147367D01*
X92467Y147617D01*
X92783Y147950D01*
G01X96300Y147200D02*
Y152200D01*
X95540Y151200D01*
G01Y147200D02*
X97060D01*
G01X100323Y147783D02*
X100767Y147367D01*
X101273Y147200D01*
X101780Y147367D01*
X102223Y147866D01*
X102540Y148617D01*
X102667Y149367D01*
Y150283D01*
X102540Y151033D01*
X102223Y151700D01*
X101843Y152033D01*
X101400Y152200D01*
X100893Y152033D01*
X100513Y151700D01*
X100260Y151200D01*
X100133Y150533D01*
X100260Y149950D01*
X100577Y149367D01*
X100957Y149033D01*
X101400Y148950D01*
X101907Y149117D01*
X102287Y149533D01*
X102667Y150283D01*
G01X90233Y152900D02*
Y157900D01*
X91817D01*
X92323Y157650D01*
X92640Y157317D01*
X92767Y156650D01*
X92640Y155983D01*
X92260Y155567D01*
X91817Y155317D01*
X90233D01*
G01X91817D02*
X92767Y152900D01*
G01X97360D02*
Y157900D01*
X95017Y154317D01*
X98183D01*
G01X101573Y152900D02*
X101700Y153983D01*
X101890Y154900D01*
X102143Y155733D01*
X102460Y156650D01*
X102967Y157900D01*
X100433D01*
G01X90233Y158700D02*
Y163700D01*
X91817D01*
X92323Y163450D01*
X92640Y163117D01*
X92767Y162450D01*
X92640Y161783D01*
X92260Y161367D01*
X91817Y161117D01*
X90233D01*
G01X91817D02*
X92767Y158700D01*
G01X97360D02*
Y163700D01*
X95017Y160117D01*
X98183D01*
G01X100307Y159450D02*
X100687Y159033D01*
X101130Y158783D01*
X101700Y158700D01*
X102270Y158867D01*
X102713Y159200D01*
X103030Y159783D01*
X103093Y160450D01*
X102967Y161117D01*
X102650Y161533D01*
X102207Y161867D01*
X101763Y161950D01*
X101320Y161867D01*
X100750Y161533D01*
X100940Y163700D01*
X102650D01*
G01X92893Y169683D02*
X92513Y169933D01*
X92070Y170100D01*
X91563D01*
X90993Y169850D01*
X90550Y169433D01*
X90233Y168933D01*
X89980Y168100D01*
X89917Y167350D01*
X90043Y166600D01*
X90233Y166100D01*
X90613Y165600D01*
X91057Y165267D01*
X91500Y165100D01*
X91943D01*
X92387Y165267D01*
X92767Y165517D01*
X93083Y165850D01*
G01X95397Y169267D02*
X95777Y169767D01*
X96220Y170017D01*
X96727Y170100D01*
X97360Y169933D01*
X97803Y169517D01*
X97930Y169017D01*
X97867Y168516D01*
X97613Y168100D01*
X96347Y167267D01*
X95777Y166683D01*
X95397Y165850D01*
X95270Y165100D01*
X97930D01*
G01X101700Y170100D02*
X101193Y169933D01*
X100813Y169517D01*
X100560Y169017D01*
X100370Y168350D01*
X100307Y167600D01*
X100370Y166850D01*
X100560Y166183D01*
X100813Y165683D01*
X101193Y165267D01*
X101700Y165100D01*
X102207Y165267D01*
X102587Y165683D01*
X102840Y166183D01*
X103030Y166850D01*
X103093Y167600D01*
X103030Y168350D01*
X102840Y169017D01*
X102587Y169517D01*
X102207Y169933D01*
X101700Y170100D01*
G01X87807Y214100D02*
Y210517D01*
X88060Y209766D01*
X88567Y209267D01*
X89200Y209100D01*
X89833Y209267D01*
X90340Y209766D01*
X90593Y210517D01*
Y214100D01*
G01X92907Y209850D02*
X93287Y209433D01*
X93730Y209183D01*
X94300Y209100D01*
X94870Y209267D01*
X95313Y209600D01*
X95630Y210183D01*
X95693Y210850D01*
X95567Y211517D01*
X95250Y211933D01*
X94807Y212267D01*
X94363Y212350D01*
X93920Y212267D01*
X93350Y211933D01*
X93540Y214100D01*
X95250D01*
G01X99133Y57600D02*
Y62600D01*
X100717D01*
X101223Y62350D01*
X101540Y62017D01*
X101667Y61350D01*
X101540Y60683D01*
X101160Y60267D01*
X100717Y60017D01*
X99133D01*
G01X100717D02*
X101667Y57600D01*
G01X104297Y61767D02*
X104677Y62267D01*
X105120Y62517D01*
X105627Y62600D01*
X106260Y62433D01*
X106703Y62017D01*
X106830Y61517D01*
X106767Y61016D01*
X106513Y60600D01*
X105247Y59767D01*
X104677Y59183D01*
X104297Y58350D01*
X104170Y57600D01*
X106830D01*
G01X110600Y62600D02*
X110093Y62433D01*
X109713Y62017D01*
X109460Y61517D01*
X109270Y60850D01*
X109207Y60100D01*
X109270Y59350D01*
X109460Y58683D01*
X109713Y58183D01*
X110093Y57767D01*
X110600Y57600D01*
X111107Y57767D01*
X111487Y58183D01*
X111740Y58683D01*
X111930Y59350D01*
X111993Y60100D01*
X111930Y60850D01*
X111740Y61517D01*
X111487Y62017D01*
X111107Y62433D01*
X110600Y62600D01*
G01X111933Y4700D02*
Y9700D01*
X113517D01*
X114023Y9450D01*
X114340Y9117D01*
X114467Y8450D01*
X114340Y7783D01*
X113960Y7367D01*
X113517Y7117D01*
X111933D01*
G01X113517D02*
X114467Y4700D01*
G01X117097Y8867D02*
X117477Y9367D01*
X117920Y9617D01*
X118427Y9700D01*
X119060Y9533D01*
X119503Y9117D01*
X119630Y8617D01*
X119567Y8116D01*
X119313Y7700D01*
X118047Y6867D01*
X117477Y6283D01*
X117097Y5450D01*
X116970Y4700D01*
X119630D01*
G01X122007Y5700D02*
X122387Y5117D01*
X122893Y4783D01*
X123463Y4700D01*
X123970Y4783D01*
X124477Y5200D01*
X124793Y5700D01*
X124857Y6200D01*
X124730Y6783D01*
X124287Y7200D01*
X123843Y7367D01*
X123273D01*
G01X123843D02*
X124223Y7617D01*
X124540Y8033D01*
X124667Y8533D01*
X124540Y9033D01*
X124223Y9450D01*
X123653Y9700D01*
X123083Y9617D01*
X122513Y9283D01*
G01X114433Y117700D02*
Y122700D01*
X116017D01*
X116523Y122450D01*
X116840Y122117D01*
X116967Y121450D01*
X116840Y120783D01*
X116460Y120367D01*
X116017Y120117D01*
X114433D01*
G01X116017D02*
X116967Y117700D01*
G01X119407Y118700D02*
X119787Y118117D01*
X120293Y117783D01*
X120863Y117700D01*
X121370Y117783D01*
X121877Y118200D01*
X122193Y118700D01*
X122257Y119200D01*
X122130Y119783D01*
X121687Y120200D01*
X121243Y120367D01*
X120673D01*
G01X121243D02*
X121623Y120617D01*
X121940Y121033D01*
X122067Y121533D01*
X121940Y122033D01*
X121623Y122450D01*
X121053Y122700D01*
X120483Y122617D01*
X119913Y122283D01*
G01X124507Y118450D02*
X124887Y118033D01*
X125330Y117783D01*
X125900Y117700D01*
X126470Y117867D01*
X126913Y118200D01*
X127230Y118783D01*
X127293Y119450D01*
X127167Y120117D01*
X126850Y120533D01*
X126407Y120867D01*
X125963Y120950D01*
X125520Y120867D01*
X124950Y120533D01*
X125140Y122700D01*
X126850D01*
G01X114533Y123400D02*
Y128400D01*
X116117D01*
X116623Y128150D01*
X116940Y127817D01*
X117067Y127150D01*
X116940Y126483D01*
X116560Y126067D01*
X116117Y125817D01*
X114533D01*
G01X116117D02*
X117067Y123400D01*
G01X119507Y124400D02*
X119887Y123817D01*
X120393Y123483D01*
X120963Y123400D01*
X121470Y123483D01*
X121977Y123900D01*
X122293Y124400D01*
X122357Y124900D01*
X122230Y125483D01*
X121787Y125900D01*
X121343Y126067D01*
X120773D01*
G01X121343D02*
X121723Y126317D01*
X122040Y126733D01*
X122167Y127233D01*
X122040Y127733D01*
X121723Y128150D01*
X121153Y128400D01*
X120583Y128317D01*
X120013Y127983D01*
G01X126000Y123400D02*
Y128400D01*
X125240Y127400D01*
G01Y123400D02*
X126760D01*
G01X115000Y142767D02*
X120000D01*
Y141183D01*
X119750Y140677D01*
X119417Y140360D01*
X118750Y140233D01*
X118083Y140360D01*
X117667Y140740D01*
X117417Y141183D01*
Y142767D01*
G01Y141183D02*
X115000Y140233D01*
G01X116000Y137793D02*
X115417Y137413D01*
X115083Y136907D01*
X115000Y136337D01*
X115083Y135830D01*
X115500Y135323D01*
X116000Y135007D01*
X116500Y134943D01*
X117083Y135070D01*
X117500Y135513D01*
X117667Y135957D01*
Y136527D01*
G01Y135957D02*
X117917Y135577D01*
X118333Y135260D01*
X118833Y135133D01*
X119333Y135260D01*
X119750Y135577D01*
X120000Y136147D01*
X119917Y136717D01*
X119583Y137287D01*
G01X117083Y132503D02*
X117667Y132060D01*
X118000Y131680D01*
X118167Y131173D01*
X118000Y130730D01*
X117667Y130413D01*
X117167Y130160D01*
X116583Y130097D01*
X116083Y130160D01*
X115583Y130413D01*
X115167Y130793D01*
X115000Y131237D01*
X115167Y131743D01*
X115666Y132187D01*
X116417Y132440D01*
X117250Y132503D01*
X118333Y132377D01*
X118917Y132187D01*
X119500Y131870D01*
X119917Y131427D01*
X120000Y130983D01*
X119833Y130540D01*
X119417Y130223D01*
G01X108900Y142967D02*
X113900D01*
Y141383D01*
X113650Y140877D01*
X113317Y140560D01*
X112650Y140433D01*
X111983Y140560D01*
X111567Y140940D01*
X111317Y141383D01*
Y142967D01*
G01Y141383D02*
X108900Y140433D01*
G01X113067Y137803D02*
X113567Y137423D01*
X113817Y136980D01*
X113900Y136473D01*
X113733Y135840D01*
X113317Y135397D01*
X112817Y135270D01*
X112316Y135333D01*
X111900Y135587D01*
X111067Y136853D01*
X110483Y137423D01*
X109650Y137803D01*
X108900Y137930D01*
Y135270D01*
G01Y131500D02*
X108983Y131057D01*
X109233Y130550D01*
X109650Y130233D01*
X110233Y130107D01*
X110817Y130233D01*
X111317Y130613D01*
X111567Y131183D01*
Y131817D01*
X111733Y132197D01*
X112150Y132513D01*
X112733Y132640D01*
X113317Y132450D01*
X113733Y132007D01*
X113900Y131500D01*
X113733Y130993D01*
X113317Y130550D01*
X112733Y130360D01*
X112150Y130487D01*
X111733Y130803D01*
X111567Y131183D01*
Y131817D01*
X111317Y132387D01*
X110817Y132767D01*
X110233Y132893D01*
X109650Y132767D01*
X109233Y132450D01*
X108983Y131943D01*
X108900Y131500D01*
G01X116300Y221833D02*
X111300D01*
Y223417D01*
X111550Y223923D01*
X111883Y224240D01*
X112550Y224367D01*
X113217Y224240D01*
X113633Y223860D01*
X113883Y223417D01*
Y221833D01*
G01Y223417D02*
X116300Y224367D01*
G01X115550Y226807D02*
X115967Y227187D01*
X116217Y227630D01*
X116300Y228200D01*
X116133Y228770D01*
X115800Y229213D01*
X115217Y229530D01*
X114550Y229593D01*
X113883Y229467D01*
X113467Y229150D01*
X113133Y228707D01*
X113050Y228263D01*
X113133Y227820D01*
X113467Y227250D01*
X111300Y227440D01*
Y229150D01*
G01X116300Y234060D02*
X111300D01*
X114883Y231717D01*
Y234883D01*
G01X117600Y293833D02*
X112600D01*
Y295417D01*
X112850Y295923D01*
X113183Y296240D01*
X113850Y296367D01*
X114517Y296240D01*
X114933Y295860D01*
X115183Y295417D01*
Y293833D01*
G01Y295417D02*
X117600Y296367D01*
G01Y300200D02*
X112600D01*
X113600Y299440D01*
G01X117600D02*
Y300960D01*
G01X116600Y303907D02*
X117183Y304287D01*
X117517Y304793D01*
X117600Y305363D01*
X117517Y305870D01*
X117100Y306377D01*
X116600Y306693D01*
X116100Y306757D01*
X115517Y306630D01*
X115100Y306187D01*
X114933Y305743D01*
Y305173D01*
G01Y305743D02*
X114683Y306123D01*
X114267Y306440D01*
X113767Y306567D01*
X113267Y306440D01*
X112850Y306123D01*
X112600Y305553D01*
X112683Y304983D01*
X113017Y304413D01*
G01X109933Y323300D02*
Y328300D01*
X111517D01*
X112023Y328050D01*
X112340Y327717D01*
X112467Y327050D01*
X112340Y326383D01*
X111960Y325967D01*
X111517Y325717D01*
X109933D01*
G01X111517D02*
X112467Y323300D01*
G01X117060D02*
Y328300D01*
X114717Y324717D01*
X117883D01*
G01X119200Y158467D02*
X124200D01*
Y156883D01*
X123950Y156377D01*
X123617Y156060D01*
X122950Y155933D01*
X122283Y156060D01*
X121867Y156440D01*
X121617Y156883D01*
Y158467D01*
G01Y156883D02*
X119200Y155933D01*
G01X119950Y153493D02*
X119533Y153113D01*
X119283Y152670D01*
X119200Y152100D01*
X119367Y151530D01*
X119700Y151087D01*
X120283Y150770D01*
X120950Y150707D01*
X121617Y150833D01*
X122033Y151150D01*
X122367Y151593D01*
X122450Y152037D01*
X122367Y152480D01*
X122033Y153050D01*
X124200Y152860D01*
Y151150D01*
G01X119200Y147000D02*
X119283Y146557D01*
X119533Y146050D01*
X119950Y145733D01*
X120533Y145607D01*
X121117Y145733D01*
X121617Y146113D01*
X121867Y146683D01*
Y147317D01*
X122033Y147697D01*
X122450Y148013D01*
X123033Y148140D01*
X123617Y147950D01*
X124033Y147507D01*
X124200Y147000D01*
X124033Y146493D01*
X123617Y146050D01*
X123033Y145860D01*
X122450Y145987D01*
X122033Y146303D01*
X121867Y146683D01*
Y147317D01*
X121617Y147887D01*
X121117Y148267D01*
X120533Y148393D01*
X119950Y148267D01*
X119533Y147950D01*
X119283Y147443D01*
X119200Y147000D01*
G01X128800Y198233D02*
X123800D01*
Y199817D01*
X124050Y200323D01*
X124383Y200640D01*
X125050Y200767D01*
X125717Y200640D01*
X126133Y200260D01*
X126383Y199817D01*
Y198233D01*
G01Y199817D02*
X128800Y200767D01*
G01X127800Y203207D02*
X128383Y203587D01*
X128717Y204093D01*
X128800Y204663D01*
X128717Y205170D01*
X128300Y205677D01*
X127800Y205993D01*
X127300Y206057D01*
X126717Y205930D01*
X126300Y205487D01*
X126133Y205043D01*
Y204473D01*
G01Y205043D02*
X125883Y205423D01*
X125467Y205740D01*
X124967Y205867D01*
X124467Y205740D01*
X124050Y205423D01*
X123800Y204853D01*
X123883Y204283D01*
X124217Y203713D01*
G01X124633Y208497D02*
X124133Y208877D01*
X123883Y209320D01*
X123800Y209827D01*
X123967Y210460D01*
X124383Y210903D01*
X124883Y211030D01*
X125384Y210967D01*
X125800Y210713D01*
X126633Y209447D01*
X127217Y208877D01*
X128050Y208497D01*
X128800Y208370D01*
Y211030D01*
G01X122100Y221733D02*
X117100D01*
Y223317D01*
X117350Y223823D01*
X117683Y224140D01*
X118350Y224267D01*
X119017Y224140D01*
X119433Y223760D01*
X119683Y223317D01*
Y221733D01*
G01Y223317D02*
X122100Y224267D01*
G01X121350Y226707D02*
X121767Y227087D01*
X122017Y227530D01*
X122100Y228100D01*
X121933Y228670D01*
X121600Y229113D01*
X121017Y229430D01*
X120350Y229493D01*
X119683Y229367D01*
X119267Y229050D01*
X118933Y228607D01*
X118850Y228163D01*
X118933Y227720D01*
X119267Y227150D01*
X117100Y227340D01*
Y229050D01*
G01X121100Y231807D02*
X121683Y232187D01*
X122017Y232693D01*
X122100Y233263D01*
X122017Y233770D01*
X121600Y234277D01*
X121100Y234593D01*
X120600Y234657D01*
X120017Y234530D01*
X119600Y234087D01*
X119433Y233643D01*
Y233073D01*
G01Y233643D02*
X119183Y234023D01*
X118767Y234340D01*
X118267Y234467D01*
X117767Y234340D01*
X117350Y234023D01*
X117100Y233453D01*
X117183Y232883D01*
X117517Y232313D01*
G01X134200Y198233D02*
X129200D01*
Y199817D01*
X129450Y200323D01*
X129783Y200640D01*
X130450Y200767D01*
X131117Y200640D01*
X131533Y200260D01*
X131783Y199817D01*
Y198233D01*
G01Y199817D02*
X134200Y200767D01*
G01X130033Y203397D02*
X129533Y203777D01*
X129283Y204220D01*
X129200Y204727D01*
X129367Y205360D01*
X129783Y205803D01*
X130283Y205930D01*
X130784Y205867D01*
X131200Y205613D01*
X132033Y204347D01*
X132617Y203777D01*
X133450Y203397D01*
X134200Y203270D01*
Y205930D01*
G01X133617Y208623D02*
X134033Y209067D01*
X134200Y209573D01*
X134033Y210080D01*
X133534Y210523D01*
X132783Y210840D01*
X132033Y210967D01*
X131117D01*
X130367Y210840D01*
X129700Y210523D01*
X129367Y210143D01*
X129200Y209700D01*
X129367Y209193D01*
X129700Y208813D01*
X130200Y208560D01*
X130867Y208433D01*
X131450Y208560D01*
X132033Y208877D01*
X132367Y209257D01*
X132450Y209700D01*
X132283Y210207D01*
X131867Y210587D01*
X131117Y210967D01*
G01X155033Y3600D02*
Y8600D01*
X156617D01*
X157123Y8350D01*
X157440Y8017D01*
X157567Y7350D01*
X157440Y6683D01*
X157060Y6267D01*
X156617Y6017D01*
X155033D01*
G01X156617D02*
X157567Y3600D01*
G01X160007Y4600D02*
X160387Y4017D01*
X160893Y3683D01*
X161463Y3600D01*
X161970Y3683D01*
X162477Y4100D01*
X162793Y4600D01*
X162857Y5100D01*
X162730Y5683D01*
X162287Y6100D01*
X161843Y6267D01*
X161273D01*
G01X161843D02*
X162223Y6517D01*
X162540Y6933D01*
X162667Y7433D01*
X162540Y7933D01*
X162223Y8350D01*
X161653Y8600D01*
X161083Y8517D01*
X160513Y8183D01*
G01X166500Y8600D02*
X165993Y8433D01*
X165613Y8017D01*
X165360Y7517D01*
X165170Y6850D01*
X165107Y6100D01*
X165170Y5350D01*
X165360Y4683D01*
X165613Y4183D01*
X165993Y3767D01*
X166500Y3600D01*
X167007Y3767D01*
X167387Y4183D01*
X167640Y4683D01*
X167830Y5350D01*
X167893Y6100D01*
X167830Y6850D01*
X167640Y7517D01*
X167387Y8017D01*
X167007Y8433D01*
X166500Y8600D01*
G01X157907Y11000D02*
Y16000D01*
X159173D01*
X159680Y15750D01*
X160060Y15417D01*
X160377Y14917D01*
X160630Y14333D01*
X160693Y13500D01*
X160630Y12667D01*
X160377Y12083D01*
X160060Y11583D01*
X159680Y11250D01*
X159173Y11000D01*
X157907D01*
G01X163007Y12000D02*
X163387Y11417D01*
X163893Y11083D01*
X164463Y11000D01*
X164970Y11083D01*
X165477Y11500D01*
X165793Y12000D01*
X165857Y12500D01*
X165730Y13083D01*
X165287Y13500D01*
X164843Y13667D01*
X164273D01*
G01X164843D02*
X165223Y13917D01*
X165540Y14333D01*
X165667Y14833D01*
X165540Y15333D01*
X165223Y15750D01*
X164653Y16000D01*
X164083Y15917D01*
X163513Y15583D01*
G01X157907Y20300D02*
Y25300D01*
X159173D01*
X159680Y25050D01*
X160060Y24717D01*
X160377Y24217D01*
X160630Y23633D01*
X160693Y22800D01*
X160630Y21967D01*
X160377Y21383D01*
X160060Y20883D01*
X159680Y20550D01*
X159173Y20300D01*
X157907D01*
G01X163197Y24467D02*
X163577Y24967D01*
X164020Y25217D01*
X164527Y25300D01*
X165160Y25133D01*
X165603Y24717D01*
X165730Y24217D01*
X165667Y23716D01*
X165413Y23300D01*
X164147Y22467D01*
X163577Y21883D01*
X163197Y21050D01*
X163070Y20300D01*
X165730D01*
G01X151433Y28900D02*
Y33900D01*
X153017D01*
X153523Y33650D01*
X153840Y33317D01*
X153967Y32650D01*
X153840Y31983D01*
X153460Y31567D01*
X153017Y31317D01*
X151433D01*
G01X153017D02*
X153967Y28900D01*
G01X157800D02*
Y33900D01*
X157040Y32900D01*
G01Y28900D02*
X158560D01*
G01X161507Y29650D02*
X161887Y29233D01*
X162330Y28983D01*
X162900Y28900D01*
X163470Y29067D01*
X163913Y29400D01*
X164230Y29983D01*
X164293Y30650D01*
X164167Y31317D01*
X163850Y31733D01*
X163407Y32067D01*
X162963Y32150D01*
X162520Y32067D01*
X161950Y31733D01*
X162140Y33900D01*
X163850D01*
G01X161500Y87333D02*
X156500D01*
Y88917D01*
X156750Y89423D01*
X157083Y89740D01*
X157750Y89867D01*
X158417Y89740D01*
X158833Y89360D01*
X159083Y88917D01*
Y87333D01*
G01Y88917D02*
X161500Y89867D01*
G01Y93700D02*
X156500D01*
X157500Y92940D01*
G01X161500D02*
Y94460D01*
G01X156500Y98800D02*
X156667Y98293D01*
X157083Y97913D01*
X157583Y97660D01*
X158250Y97470D01*
X159000Y97407D01*
X159750Y97470D01*
X160417Y97660D01*
X160917Y97913D01*
X161333Y98293D01*
X161500Y98800D01*
X161333Y99307D01*
X160917Y99687D01*
X160417Y99940D01*
X159750Y100130D01*
X159000Y100193D01*
X158250Y100130D01*
X157583Y99940D01*
X157083Y99687D01*
X156667Y99307D01*
X156500Y98800D01*
G01X161200Y140133D02*
X156200D01*
Y141717D01*
X156450Y142223D01*
X156783Y142540D01*
X157450Y142667D01*
X158117Y142540D01*
X158533Y142160D01*
X158783Y141717D01*
Y140133D01*
G01Y141717D02*
X161200Y142667D01*
G01X160617Y145423D02*
X161033Y145867D01*
X161200Y146373D01*
X161033Y146880D01*
X160534Y147323D01*
X159783Y147640D01*
X159033Y147767D01*
X158117D01*
X157367Y147640D01*
X156700Y147323D01*
X156367Y146943D01*
X156200Y146500D01*
X156367Y145993D01*
X156700Y145613D01*
X157200Y145360D01*
X157867Y145233D01*
X158450Y145360D01*
X159033Y145677D01*
X159367Y146057D01*
X159450Y146500D01*
X159283Y147007D01*
X158867Y147387D01*
X158117Y147767D01*
G01X162517Y89693D02*
X162267Y89313D01*
X162100Y88870D01*
Y88363D01*
X162350Y87793D01*
X162767Y87350D01*
X163267Y87033D01*
X164100Y86780D01*
X164850Y86717D01*
X165600Y86843D01*
X166100Y87033D01*
X166600Y87413D01*
X166933Y87857D01*
X167100Y88300D01*
Y88743D01*
X166933Y89187D01*
X166683Y89567D01*
X166350Y89883D01*
G01X166100Y92007D02*
X166683Y92387D01*
X167017Y92893D01*
X167100Y93463D01*
X167017Y93970D01*
X166600Y94477D01*
X166100Y94793D01*
X165600Y94857D01*
X165017Y94730D01*
X164600Y94287D01*
X164433Y93843D01*
Y93273D01*
G01Y93843D02*
X164183Y94223D01*
X163767Y94540D01*
X163267Y94667D01*
X162767Y94540D01*
X162350Y94223D01*
X162100Y93653D01*
X162183Y93083D01*
X162517Y92513D01*
G01X163517Y142193D02*
X163267Y141813D01*
X163100Y141370D01*
Y140863D01*
X163350Y140293D01*
X163767Y139850D01*
X164267Y139533D01*
X165100Y139280D01*
X165850Y139217D01*
X166600Y139343D01*
X167100Y139533D01*
X167600Y139913D01*
X167933Y140357D01*
X168100Y140800D01*
Y141243D01*
X167933Y141687D01*
X167683Y142067D01*
X167350Y142383D01*
G01X163933Y144697D02*
X163433Y145077D01*
X163183Y145520D01*
X163100Y146027D01*
X163267Y146660D01*
X163683Y147103D01*
X164183Y147230D01*
X164684Y147167D01*
X165100Y146913D01*
X165933Y145647D01*
X166517Y145077D01*
X167350Y144697D01*
X168100Y144570D01*
Y147230D01*
M02*
