G04 ================== begin FILE IDENTIFICATION RECORD ==================*
G04 Layout Name:  snoic_test.brd*
G04 Film Name:    SODERMASK_TOP*
G04 File Format:  Gerber RS274X*
G04 File Origin:  Cadence Allegro 16.6-P004*
G04 Origin Date:  Tue Nov 04 00:15:37 2014*
G04 *
G04 Layer:  VIA CLASS/SOLDERMASK_TOP*
G04 Layer:  PIN/SOLDERMASK_TOP*
G04 Layer:  PACKAGE GEOMETRY/SOLDERMASK_TOP*
G04 Layer:  DRC ERROR CLASS/SOLDERMASK_TOP*
G04 Layer:  BOARD GEOMETRY/OUTLINE*
G04 Layer:  BOARD GEOMETRY/SOLDERMASK_TOP*
G04 *
G04 Offset:    (0.000 0.000)*
G04 Mirror:    No*
G04 Mode:      Positive*
G04 Rotation:  0*
G04 FullContactRelief:  No*
G04 UndefLineWidth:     6.000*
G04 ================== end FILE IDENTIFICATION RECORD ====================*
%FSLAX25Y25*MOIN*%
%IR0*IPPOS*OFA0.00000B0.00000*MIA0B0*SFA1.00000B1.00000*%
%ADD12R,.074799X.074799*%
%ADD10R,.064X.054*%
%ADD18R,.054X.064*%
%ADD22R,.036X.039*%
%ADD16R,.039X.036*%
%ADD14O,.028X.078*%
%ADD21O,.078X.028*%
%ADD17R,.049X.054*%
%ADD13C,.028*%
%ADD20R,.036201X.0465*%
%ADD19R,.0465X.036201*%
%ADD23R,.040157X.040157*%
%ADD15R,.059055X.059055*%
%ADD24R,.027559X.03937*%
%ADD11C,.074799*%
%ADD25C,.006*%
G75*
%LPD*%
G75*
G54D10*
X10300Y13200D03*
Y24700D03*
X19900Y13200D03*
Y24700D03*
X29400Y13000D03*
Y24500D03*
X38900Y13000D03*
Y24500D03*
X107500Y293600D03*
Y305100D03*
G54D11*
X25000Y46000D03*
Y56000D03*
Y66000D03*
Y76000D03*
Y86000D03*
Y96000D03*
Y106000D03*
Y116000D03*
Y126000D03*
Y136000D03*
Y146000D03*
Y156000D03*
Y166000D03*
Y176000D03*
Y186000D03*
Y196000D03*
Y206000D03*
Y216000D03*
Y226000D03*
Y236000D03*
Y246000D03*
Y256000D03*
Y266000D03*
Y276000D03*
Y286000D03*
Y296000D03*
Y306000D03*
X145000Y46000D03*
Y56000D03*
Y66000D03*
Y76000D03*
Y86000D03*
Y96000D03*
Y106000D03*
Y116000D03*
Y126000D03*
Y136000D03*
Y146000D03*
Y156000D03*
Y166000D03*
Y176000D03*
Y186000D03*
Y196000D03*
Y206000D03*
Y216000D03*
Y226000D03*
Y236000D03*
Y246000D03*
Y256000D03*
Y266000D03*
Y276000D03*
Y286000D03*
Y296000D03*
Y306000D03*
G54D20*
X70800Y175700D03*
Y189300D03*
Y182390D03*
Y195990D03*
Y208210D03*
Y214900D03*
X88300Y13910D03*
Y20600D03*
X88100Y38910D03*
Y45600D03*
X87100Y132910D03*
X93600D03*
X87100Y139600D03*
X93600D03*
X101800Y132910D03*
Y139600D03*
X115100Y199100D03*
Y205790D03*
X127700Y14910D03*
Y21600D03*
X127600Y38210D03*
Y44900D03*
X127800Y149710D03*
Y156400D03*
Y169900D03*
X120700Y180110D03*
X127800Y176590D03*
X120700Y186800D03*
Y199100D03*
Y205790D03*
X125100Y224200D03*
Y230890D03*
X131100Y230790D03*
Y224100D03*
X158500Y115900D03*
Y122590D03*
Y135990D03*
Y129300D03*
G54D21*
X85367Y175800D03*
Y180800D03*
Y185800D03*
Y190800D03*
Y195800D03*
Y200800D03*
Y205800D03*
X88128Y242900D03*
Y247900D03*
Y252900D03*
Y257900D03*
Y262900D03*
Y267900D03*
Y272900D03*
X98067Y19900D03*
Y14900D03*
Y29900D03*
Y24900D03*
Y39900D03*
Y34900D03*
Y44900D03*
X106233Y175800D03*
Y190800D03*
Y185800D03*
Y180800D03*
Y200800D03*
Y195800D03*
Y205800D03*
X118933Y14900D03*
Y19900D03*
Y24900D03*
Y29900D03*
Y34900D03*
Y39900D03*
Y44900D03*
X116672Y242900D03*
Y252900D03*
Y247900D03*
Y262900D03*
Y257900D03*
Y272900D03*
Y267900D03*
G54D12*
X25000Y316000D03*
X145000D03*
G54D13*
X31000Y31600D03*
X42700Y32000D03*
X47310Y51890D03*
X52300Y122500D03*
X45000Y157400D03*
X49000Y303200D03*
X64900Y109874D03*
X58200Y130500D03*
X64200Y137900D03*
X60000Y170600D03*
X57000Y177600D03*
X56200Y213300D03*
X62900Y263700D03*
X66300Y25600D03*
X68400Y38900D03*
X72600Y108600D03*
X75400Y142400D03*
X74285Y218900D03*
X68900Y262900D03*
X73300Y309800D03*
X81400Y68300D03*
X81500Y88200D03*
X81940Y116760D03*
X82000Y139600D03*
X85451Y149749D03*
X84100Y170300D03*
X78600Y195800D03*
X76800Y203100D03*
X78700Y242900D03*
X89700Y29900D03*
X88300Y105300D03*
X93600Y145500D03*
X95800Y157500D03*
Y181400D03*
X91800Y199900D03*
X96400Y242900D03*
X93700Y287000D03*
X90500Y309800D03*
X106500Y18200D03*
X106695Y40767D03*
X98600Y109300D03*
X101900Y145300D03*
X98400Y179300D03*
X104400Y240200D03*
X104600Y244800D03*
X106200Y274600D03*
X102800Y286800D03*
X98000Y286900D03*
X109400Y22300D03*
Y29000D03*
X109800Y37500D03*
X113500Y126500D03*
X112300Y171100D03*
X115000Y191100D03*
X115100Y195100D03*
X107500Y286700D03*
X121900Y175700D03*
X127900Y195900D03*
X123800Y262900D03*
X123500Y267900D03*
X130100Y215100D03*
X155700Y13700D03*
X155900Y23300D03*
X164700Y100500D03*
Y117000D03*
G54D22*
X78400Y312300D03*
Y318300D03*
X114900Y180800D03*
Y186800D03*
X127800Y184900D03*
Y190900D03*
X164700Y104900D03*
Y110900D03*
Y123300D03*
Y129300D03*
G54D23*
X87024Y116760D03*
Y124240D03*
X94976Y120500D03*
G54D14*
X39900Y115274D03*
Y149526D03*
X44900Y115274D03*
X49900D03*
Y149526D03*
X44900D03*
X54900Y115274D03*
X59900D03*
X64900D03*
Y149526D03*
X59900D03*
X54900D03*
X69900Y115274D03*
X74900D03*
Y149526D03*
X69900D03*
G54D24*
X93880Y293600D03*
X90140D03*
X86400D03*
Y303049D03*
X90140D03*
X93880D03*
G54D15*
X49672Y7000D03*
Y19598D03*
Y32197D03*
Y44795D03*
X45915Y88200D03*
X65600D03*
X56300Y251400D03*
Y271085D03*
X79200Y7000D03*
Y19598D03*
Y32197D03*
Y44795D03*
X104415Y88200D03*
X124100D03*
G54D25*
G01X0Y0D02*
X170000D01*
Y333071D01*
X0D01*
Y0D01*
G54D16*
X53900Y161800D03*
X59900D03*
X63700Y189300D03*
X57700D03*
X63600Y196000D03*
X57600D03*
X63600Y202200D03*
X57600D03*
X68900Y161500D03*
X74900D03*
X94300Y7500D03*
X88300D03*
X94100Y53500D03*
X88100D03*
X107000Y149300D03*
X106300Y167000D03*
X113000Y149300D03*
X112300Y167000D03*
G54D17*
X55100Y303200D03*
X62100D03*
G54D18*
X53400Y318300D03*
X64900D03*
X107500D03*
X119000D03*
X138000Y13700D03*
X137900Y23400D03*
X149500Y13700D03*
X149400Y23400D03*
G54D19*
X63690Y183300D03*
X57000D03*
X56910Y208200D03*
X63600D03*
X75790Y293600D03*
X69100D03*
X71800Y303200D03*
X78490D03*
X94990Y109300D03*
X88300D03*
X93890Y318300D03*
X87200D03*
X101510Y7500D03*
X100810Y53500D03*
X107500D03*
X101810Y126500D03*
X101800Y120500D03*
X106300Y155400D03*
X106310Y160900D03*
X108200Y7500D03*
X108500Y126500D03*
X108490Y120500D03*
X112990Y155400D03*
X113000Y160900D03*
X146890Y6700D03*
X140200D03*
X146790Y30400D03*
X140100D03*
M02*
