G04 ================== begin FILE IDENTIFICATION RECORD ==================*
G04 Layout Name:  snoic_test.brd*
G04 Film Name:    SODERMASK_BOTTOM*
G04 File Format:  Gerber RS274X*
G04 File Origin:  Cadence Allegro 16.6-P004*
G04 Origin Date:  Tue Nov 04 00:15:37 2014*
G04 *
G04 Layer:  VIA CLASS/SOLDERMASK_BOTTOM*
G04 Layer:  PIN/SOLDERMASK_BOTTOM*
G04 Layer:  PACKAGE GEOMETRY/SOLDERMASK_BOTTOM*
G04 Layer:  DRC ERROR CLASS/SOLDERMASK_BOTTOM*
G04 Layer:  BOARD GEOMETRY/OUTLINE*
G04 Layer:  BOARD GEOMETRY/SOLDERMASK_BOTTOM*
G04 *
G04 Offset:    (0.000 0.000)*
G04 Mirror:    No*
G04 Mode:      Positive*
G04 Rotation:  0*
G04 FullContactRelief:  No*
G04 UndefLineWidth:     6.000*
G04 ================== end FILE IDENTIFICATION RECORD ====================*
%FSLAX25Y25*MOIN*%
%IR0*IPPOS*OFA0.00000B0.00000*MIA0B0*SFA1.00000B1.00000*%
%ADD11R,.074799X.074799*%
%ADD18R,.064X.054*%
%ADD17R,.054X.064*%
%ADD19R,.036X.039*%
%ADD13R,.039X.036*%
%ADD14C,.028*%
%ADD12R,.036201X.0465*%
%ADD15R,.0465X.036201*%
%ADD16R,.059055X.059055*%
%ADD10C,.074799*%
%ADD20C,.006*%
G75*
%LPD*%
G75*
G54D10*
X25000Y46000D03*
Y56000D03*
Y66000D03*
Y76000D03*
Y86000D03*
Y96000D03*
Y106000D03*
Y116000D03*
Y126000D03*
Y136000D03*
Y146000D03*
Y156000D03*
Y166000D03*
Y176000D03*
Y186000D03*
Y196000D03*
Y206000D03*
Y216000D03*
Y226000D03*
Y236000D03*
Y246000D03*
Y256000D03*
Y266000D03*
Y276000D03*
Y286000D03*
Y296000D03*
Y306000D03*
X145000Y46000D03*
Y56000D03*
Y66000D03*
Y76000D03*
Y86000D03*
Y96000D03*
Y106000D03*
Y116000D03*
Y126000D03*
Y136000D03*
Y146000D03*
Y156000D03*
Y166000D03*
Y176000D03*
Y186000D03*
Y196000D03*
Y206000D03*
Y216000D03*
Y226000D03*
Y236000D03*
Y246000D03*
Y256000D03*
Y266000D03*
Y276000D03*
Y286000D03*
Y296000D03*
Y306000D03*
G54D20*
G01X0Y0D02*
X170000D01*
Y333071D01*
X0D01*
Y0D01*
G54D11*
X25000Y316000D03*
X145000D03*
G54D12*
X25000Y8910D03*
Y15600D03*
Y28210D03*
Y34900D03*
X45900Y96200D03*
Y102890D03*
X62900Y237600D03*
Y244290D03*
X65600Y95900D03*
Y102590D03*
X69000Y237600D03*
Y244290D03*
X102300Y18600D03*
X97100D03*
X102300Y25290D03*
X97100D03*
Y33510D03*
X102500D03*
X97100Y40200D03*
X102500D03*
X114600Y18600D03*
Y25290D03*
Y33410D03*
Y40100D03*
X119800Y18600D03*
Y25290D03*
X119700Y33410D03*
Y40100D03*
G54D13*
X25000Y21900D03*
X31000D03*
X60300Y32000D03*
X61300Y44800D03*
X63200Y122500D03*
X57200D03*
X66300Y32000D03*
X67300Y44800D03*
X68900Y122500D03*
X74900D03*
Y137900D03*
X68900D03*
X79300Y28500D03*
X85300D03*
X93800Y186500D03*
X99800D03*
G54D14*
X31000Y31600D03*
X42700Y32000D03*
X47310Y51890D03*
X52300Y122500D03*
X45000Y157400D03*
X49000Y303200D03*
X64900Y109874D03*
X58200Y130500D03*
X64200Y137900D03*
X60000Y170600D03*
X57000Y177600D03*
X56200Y213300D03*
X62900Y263700D03*
X66300Y25600D03*
X68400Y38900D03*
X72600Y108600D03*
X75400Y142400D03*
X74285Y218900D03*
X68900Y262900D03*
X73300Y309800D03*
X81400Y68300D03*
X81500Y88200D03*
X81940Y116760D03*
X82000Y139600D03*
X85451Y149749D03*
X84100Y170300D03*
X78600Y195800D03*
X76800Y203100D03*
X78700Y242900D03*
X89700Y29900D03*
X88300Y105300D03*
X93600Y145500D03*
X95800Y157500D03*
Y181400D03*
X91800Y199900D03*
X96400Y242900D03*
X93700Y287000D03*
X90500Y309800D03*
X106500Y18200D03*
X106695Y40767D03*
X98600Y109300D03*
X101900Y145300D03*
X98400Y179300D03*
X104400Y240200D03*
X104600Y244800D03*
X106200Y274600D03*
X102800Y286800D03*
X98000Y286900D03*
X109400Y22300D03*
Y29000D03*
X109800Y37500D03*
X113500Y126500D03*
X112300Y171100D03*
X115000Y191100D03*
X115100Y195100D03*
X107500Y286700D03*
X121900Y175700D03*
X127900Y195900D03*
X123800Y262900D03*
X123500Y267900D03*
X130100Y215100D03*
X155700Y13700D03*
X155900Y23300D03*
X164700Y100500D03*
Y117000D03*
G54D15*
X47210Y32000D03*
X53900D03*
X47310Y44800D03*
X54000D03*
X140210Y6700D03*
X146900D03*
X146790Y30400D03*
X140100D03*
G54D16*
X45915Y88200D03*
X65600D03*
X56300Y251400D03*
Y271085D03*
X104415Y88200D03*
X124100D03*
G54D17*
X63400Y130200D03*
X73800Y35900D03*
X74900Y130200D03*
X85300Y35900D03*
X91000Y193900D03*
X102500D03*
X138000Y13700D03*
X137900Y23400D03*
X149500Y13700D03*
X149400Y23400D03*
G54D18*
X98600Y257000D03*
Y268500D03*
G54D19*
X106200Y262500D03*
Y268500D03*
M02*
